<?xml version="1.0" encoding="UTF-8" standalone="no"?>
<!-- Created with Inkscape (http://www.inkscape.org/) -->

<svg
   version="1.1"
   id="svg1"
   width="2048"
   height="2048"
   viewBox="0 0 2048 2048"
   sodipodi:docname="pageandpixellogo.svg"
   inkscape:version="1.3 (0e150ed6c4, 2023-07-21)"
   xmlns:inkscape="http://www.inkscape.org/namespaces/inkscape"
   xmlns:sodipodi="http://sodipodi.sourceforge.net/DTD/sodipodi-0.dtd"
   xmlns:xlink="http://www.w3.org/1999/xlink"
   xmlns="http://www.w3.org/2000/svg"
   xmlns:svg="http://www.w3.org/2000/svg">
  <defs
     id="defs1">
    <linearGradient
       id="linearGradient28"
       inkscape:collect="always">
      <stop
         style="stop-color:#ffab02;stop-opacity:1;"
         offset="0"
         id="stop29" />
      <stop
         style="stop-color:#e99c00;stop-opacity:0;"
         offset="1"
         id="stop30" />
    </linearGradient>
    <linearGradient
       id="linearGradient22"
       inkscape:collect="always">
      <stop
         style="stop-color:#000000;stop-opacity:0;"
         offset="0.36486486"
         id="stop24" />
      <stop
         style="stop-color:#000000;stop-opacity:1;"
         offset="0.36486486"
         id="stop23" />
    </linearGradient>
    <linearGradient
       id="linearGradient13"
       inkscape:collect="always">
      <stop
         style="stop-color:#3a7bd3;stop-opacity:1;"
         offset="0.16864865"
         id="stop14" />
      <stop
         style="stop-color:#8cfeff;stop-opacity:0;"
         offset="0.18023165"
         id="stop15" />
    </linearGradient>
    <linearGradient
       inkscape:collect="always"
       xlink:href="#linearGradient13"
       id="linearGradient15"
       x1="298"
       y1="1027.8063"
       x2="1809"
       y2="1027.8063"
       gradientUnits="userSpaceOnUse" />
    <linearGradient
       inkscape:collect="always"
       xlink:href="#linearGradient22"
       id="linearGradient24"
       x1="298"
       y1="1027.8063"
       x2="1809"
       y2="1027.8063"
       gradientUnits="userSpaceOnUse" />
    <radialGradient
       inkscape:collect="always"
       xlink:href="#linearGradient28"
       id="radialGradient30"
       cx="1053.5"
       cy="1027.8063"
       fx="1053.5"
       fy="1027.8063"
       r="755.5"
       gradientTransform="matrix(1,0,0,0.32667946,0,692.04311)"
       gradientUnits="userSpaceOnUse" />
    <meshgradient
       inkscape:collect="always"
       id="meshgradient38"
       gradientUnits="userSpaceOnUse"
       x="298"
       y="781">
      <meshrow
         id="meshrow38">
        <meshpatch
           id="meshpatch38">
          <stop
             path="c 503.667,0  1007.33,0  1511,0"
             style="stop-color:#ffffff;stop-opacity:1"
             id="stop39" />
          <stop
             path="c 0,164.535  0,329.07  0,493.606"
             style="stop-color:#000000;stop-opacity:1"
             id="stop40" />
          <stop
             path="c -503.667,0  -1007.33,0  -1511,0"
             style="stop-color:#ffffff;stop-opacity:1"
             id="stop41" />
          <stop
             path="c 0,-164.535  0,-329.07  0,-493.606"
             style="stop-color:#000000;stop-opacity:1"
             id="stop42" />
        </meshpatch>
      </meshrow>
    </meshgradient>
  </defs>
  <sodipodi:namedview
     id="namedview1"
     pagecolor="#ffffff"
     bordercolor="#000000"
     borderopacity="0.25"
     inkscape:showpageshadow="2"
     inkscape:pageopacity="0.0"
     inkscape:pagecheckerboard="0"
     inkscape:deskcolor="#d1d1d1"
     inkscape:zoom="0.37939453"
     inkscape:cx="1024"
     inkscape:cy="1024"
     inkscape:window-width="1920"
     inkscape:window-height="991"
     inkscape:window-x="-9"
     inkscape:window-y="-9"
     inkscape:window-maximized="1"
     inkscape:current-layer="g24" />
  <g
     inkscape:groupmode="layer"
     inkscape:label="Image"
     id="g1"
     style="display:inline">
    <path
       style="display:inline;fill:#ffab02;fill-opacity:1"
       d="m 553.93776,1273.9893 c -11.2862,-1.7663 -23.09918,-8.1013 -30.91224,-16.5774 -4.13556,-4.4866 -8.99699,-13.4079 -9.01575,-16.5451 -0.024,-4.0078 -68.02946,-16.4957 -116.00977,-21.3029 -28.56623,-2.862 -41.32905,-3.6282 -70.75,-4.2473 L 298,1214.7012 V 1050.3506 886 h 9 9 l 0.25,115.75 c 0.1375,63.6625 0.25,129.475 0.25,146.25 v 30.5 l 12.5,0.7057 c 61.7721,3.4872 112.29283,14.2057 164.82428,34.9692 12.46888,4.9285 24.67101,10.6679 24.02691,11.3015 -0.19315,0.19 -6.42619,-1.6666 -13.85119,-4.1258 -15.77207,-5.2236 -44.69168,-11.2266 -71.36558,-14.8136 -10.37607,-1.3954 -19.60107,-2.513 -20.5,-2.4837 -0.89893,0.029 7.00154,1.8328 17.55659,4.0076 22.35245,4.6056 28.4973,6.3578 89.80899,25.6089 4.4,1.3816 10.925,4.1249 14.5,6.0963 3.575,1.9714 8.77671,4.8428 11.55935,6.381 2.78265,1.5381 7.85783,3.5135 11.2782,4.3898 8.76996,2.2468 14.55285,0.8185 30.66226,-7.573 26.14941,-13.6214 72.76606,-28.3529 115.00019,-36.3416 15.91831,-3.011 12.00672,-3.3368 -7,-0.5831 -22.30835,3.2321 -51.77904,9.5208 -70.06926,14.9519 -9.29572,2.7603 -17.29848,4.8863 -17.78391,4.7245 -2.1281,-0.7094 40.2907,-17.7036 60.33727,-24.1728 33.67306,-10.8668 84.50576,-19.5131 130.2659,-22.1573 l 11.75,-0.679 V 1032.3532 886 h 9 9 l 0.0622,134.75 c 0.0342,74.1125 0.14668,147.9904 0.25,164.1732 l 0.18784,29.4231 -8.5,0.263 c -4.675,0.1446 -18.175,0.5189 -30,0.8318 -56.91348,1.506 -117.96366,9.2852 -171.92449,21.9072 -5.33938,1.249 -5.4525,1.3513 -7.21003,6.5219 -6.8463,20.1414 -32.83231,33.89 -56.92772,30.1191 z m 165.79141,-70.5935 c -0.33229,-0.3323 -1.1948,-0.3678 -1.91667,-0.079 -0.79773,0.3192 -0.56078,0.5562 0.60417,0.6042 1.05416,0.043 1.64479,-0.193 1.3125,-0.5253 z M 567.22998,1148.75 c -0.0309,-43.0375 0.16001,-79.0375 0.42429,-80 0.43241,-1.5748 2.10034,-1.7499 16.66312,-1.749 l 16.18261,9e-4 V 1049.251 1031.5 l 20.75,-0.2703 20.75,-0.2703 V 1048.9797 1067 h 17 17 v -16.9701 -16.9701 l 12.75,-0.2799 12.75,-0.2799 v -32 -32 l 16.75,-0.27418 16.75,-0.27418 V 984.97582 1002 h 15.4536 15.4536 l 0.0627,70.25 0.0627,70.25 -17.20771,3.3451 c -29.2526,5.6865 -62.07673,15.7867 -89.82493,27.6396 -33.71255,14.4007 -62.39486,30.8139 -84.19662,48.1809 -3.68314,2.9339 -6.88124,5.3344 -7.1069,5.3344 -0.22565,0 -0.43558,-35.2125 -0.4665,-78.25 z M 641,1104.5818 c 0,-10.13 0.27314,-19.13 0.60699,-20 0.54139,-1.4109 -1.61997,-1.5818 -20,-1.5818 H 601 v 20 20 h 20 20 z M 698,1108 v -12 h -12 -12 v 12 12 h 12 12 z m 35.89915,-40.6298 3.14915,-0.6299 -0.27415,-16.1201 L 736.5,1034.5 l -10,0.068 c -5.5,0.037 -12.8125,0.1498 -16.25,0.25 L 704,1035 v 16.5 16.5 h 13.375 c 7.35625,0 14.79212,-0.2834 16.52415,-0.6298 z M 548,1219.3815 c -18.4878,-14.0619 -54.45383,-34.2734 -83.20373,-46.7573 C 439.12222,1161.476 407.91238,1151.7968 379,1146.0161 l -18.5,-3.6989 -0.0461,-154.90861 c -0.0253,-85.19973 0.10952,-162.03187 0.29969,-170.73809 l 0.34577,-15.82951 4.20031,0.65237 c 2.31017,0.3588 10.95031,1.99241 19.20031,3.63025 66.60008,13.22186 121.48686,37.50948 165.29309,73.14285 l 7.29309,5.93243 -0.29309,15.65056 L 556.5,915.5 l -14.49819,0.0762 -14.49818,0.0762 -0.21824,4.4238 c -0.12004,2.43309 0.0469,16.6863 0.37096,31.6738 L 528.24556,979 H 542.62278 557 v 123.5 c 0,67.925 -0.1125,123.4655 -0.25,123.4233 -0.1375,-0.042 -4.075,-2.986 -8.75,-6.5418 z m -38.14377,-257.23552 0.35623,-38.85057 -13.85623,-7.59849 c -16.97759,-9.31018 -23.20366,-12.1522 -39.85623,-18.1932 -12.11102,-4.39348 -41.7226,-12.4692 -45.80908,-12.49313 -1.71006,-0.01 -1.79259,1.53566 -1.50789,28.23941 0.16565,15.5375 0.444,33.24099 0.61856,39.34109 l 0.31738,11.09109 10.59266,2.22263 c 27.26665,5.7213 63.74358,19.69983 82.28837,31.53417 3.025,1.93041 5.725,3.52052 6,3.53372 0.275,0.013 0.6603,-17.45891 0.85623,-38.82672 z M 534.45,1224.0951 c -2.25834,-2.1512 -30.19745,-15.4359 -43.95,-20.8977 -47.74384,-18.9614 -104.52958,-31.348 -158,-34.4643 l -4,-0.2331 V 1005 841.5 l 9.24685,-0.28748 9.24686,-0.28749 0.25314,155.28749 L 347.5,1151.5 l 3.5,0.2792 c 1.925,0.1536 9.8,1.412 17.5,2.7964 49.32881,8.8691 92.03397,24.5179 137,50.202 19.4531,11.1113 33.54633,20.1618 31.45,20.1966 -0.8525,0.014 -1.9775,-0.3814 -2.5,-0.8791 z m 63.05,-5.6384 c 50.99151,-33.1157 107.89915,-55.0871 167.49004,-64.6661 L 779,1151.5385 V 996.26926 841 h 8.8624 8.8624 l 0.5633,18.75 c 0.30981,10.3125 0.63853,83.82222 0.73048,163.3549 l 0.16718,144.605 -8.84288,0.7011 c -63.65011,5.0465 -129.28316,22.4884 -185.24628,49.2289 -8.47187,4.0481 -15.67187,7.3491 -16,7.3356 -0.32813,-0.013 3.9034,-2.9469 9.4034,-6.5188 z m 457,-35.4327 c -7.1022,-1.568 -12.8818,-3.998 -18.25,-7.6732 -2.8875,-1.9769 -5.25,-3.9054 -5.25,-4.2855 0,-0.3801 1.3521,-1.9865 3.0047,-3.5698 l 3.0047,-2.8787 3.2453,3.1404 c 9.9623,9.6402 31.8429,11.1545 39.7383,2.7503 3.2097,-3.4167 3.7976,-10.9278 1.1807,-15.0875 -2.4875,-3.9542 -7.0681,-6.0874 -20.6737,-9.6278 -6.05,-1.5743 -12.9247,-3.7926 -15.2772,-4.9297 -13.0912,-6.3273 -14.789,-25.2881 -3.0579,-34.1504 3.9017,-2.9476 12.5975,-5.7121 17.9674,-5.7121 8.5775,0 21.0197,4.2042 26.7715,9.0461 l 2.4037,2.0235 -2.7281,2.8475 -2.7281,2.8476 -4.8924,-3.2924 c -7.3068,-4.917 -17.9203,-6.7217 -26.1266,-4.4424 -5.2879,1.4687 -9.8323,6.9955 -9.8323,11.9578 0,8.846 3.3052,11.4854 20.0275,15.9926 19.625,5.2897 25.7089,9.4407 27.8585,19.0078 2.2654,10.0827 -2.9242,19.6311 -13.0335,23.98 -5.7529,2.4748 -16.9785,3.4631 -23.3525,2.0559 z m 118.5453,-0.1164 c -20.4225,-4.0033 -34.9279,-25.4506 -31.3479,-46.3504 3.1462,-18.3675 16.0535,-31.5141 34.0406,-34.6716 10.6148,-1.8634 24.4058,1.7197 32.762,8.5119 l 3,2.4385 -2.9055,3.049 -2.9055,3.0491 -3.2533,-2.8564 c -7.3535,-6.4564 -23.2142,-8.4289 -33.1495,-4.1225 -6.2554,2.7114 -13.5036,10.1084 -16.4481,16.7858 -3.21,7.2797 -3.5831,18.3033 -0.8633,25.5111 2.9651,7.8581 8.595,14.6578 15.0356,18.1598 9.9344,5.4018 24.1518,4.5722 34.2396,-1.9979 l 3.75,-2.4424 v -10.3323 -10.3324 l -12.5,0.4816 -12.5,0.4815 v -4.635 -4.635 h 4.843 c 2.6636,0 10.3136,0.2942 17,0.6537 l 12.157,0.6537 v 15.2276 15.2276 l -3.25,2.4768 c -11.2083,8.5418 -25.1777,12.1238 -37.7047,9.6682 z m 170.2174,-0.3581 c -6.7013,-1.5242 -17.0661,-6.5698 -19.8775,-9.6763 -1.6478,-1.8209 -1.5978,-2.0418 1.0997,-4.8575 l 2.8261,-2.9498 3.5437,3.1114 c 5.715,5.0179 11.621,7.1367 21.2412,7.6204 7.1219,0.3581 9.3895,0.081 13.2233,-1.6147 7.6601,-3.3884 10.4161,-10.0942 7.2564,-17.6562 -1.8624,-4.4574 -6.6043,-6.8271 -21.3984,-10.6935 -6.4224,-1.6786 -13.2522,-3.8589 -15.1772,-4.8453 -12.4552,-6.382 -14.7726,-22.7259 -4.6103,-32.5154 9.255,-8.9154 29.1401,-9.5959 42.0047,-1.4374 5.7316,3.6348 6.5539,5.4609 3.7306,8.2842 -1.8074,1.8074 -2.4313,1.9504 -3.8889,0.8911 -4.7154,-3.4269 -12.9333,-6.4964 -18.5969,-6.9461 -8.3534,-0.6633 -13.7536,0.9629 -17.5479,5.2843 -5.2663,5.9981 -3.8104,15.8553 2.8698,19.4305 0.9934,0.5316 6.92,2.3571 13.1704,4.0566 22.775,6.1925 28.8685,11.1433 28.8685,23.4544 0,6.0843 -2.2001,11.5124 -6.1651,15.211 -6.4146,5.9834 -20.7007,8.5484 -32.5722,5.8483 z m -474.59603,-0.2162 C 868.3,1181.9667 868,1163.9667 868,1142.3333 V 1103 l 17.75,0.012 c 18.79111,0.013 24.19235,0.848 32.99407,5.1033 6.47738,3.1315 13.82455,10.7289 17.06776,17.649 2.42921,5.1833 2.68817,6.8436 2.68817,17.2358 0,10.4939 -0.23814,11.9844 -2.72198,17.0373 -1.4971,3.0455 -4.3339,7.4204 -6.30402,9.722 -4.5138,5.2734 -15.66721,10.8387 -24.474,12.212 -7.22958,1.1274 -35.28842,1.4069 -36.33333,0.362 z m 44.09513,-10.7373 c 7.07182,-3.2522 12.43076,-8.5797 15.56517,-15.4736 3.0337,-6.6724 2.94559,-19.6736 -0.18109,-26.7212 -2.81296,-6.3405 -9.09056,-12.5952 -15.64588,-15.5889 -4.35834,-1.9904 -6.95708,-2.3289 -20.25,-2.6376 L 877,1110.8205 v 32.1815 32.1814 l 14.75,-0.3538 c 13.74487,-0.3298 15.17671,-0.5501 21.0118,-3.2336 z m 199.8473,10.6797 c -0.335,-0.335 -0.6091,-18.309 -0.6091,-39.9424 V 1103 h 4.5115 4.5114 l -0.2614,39.6159 -0.2615,39.6159 -3.6409,0.3265 c -2.0025,0.1796 -3.915,0.052 -4.25,-0.2826 z m 177.9356,-7.0313 c -3.2753,-4.2594 -15.2003,-19.1303 -26.5,-33.0464 l -20.5447,-25.3021 -0.2637,32.5521 -0.2636,32.552 H 1238.9863 1235 v -39.5 -39.5 h 3.8592 c 3.7709,0 4.1654,0.3715 17.25,16.2435 7.3649,8.9339 18.7328,22.891 25.2619,31.0158 10.3338,12.8593 15.691,18.8862 13.1885,14.8372 -0.4121,-0.6669 -0.4201,-14.9114 -0.018,-31.6545 l 0.7318,-30.442 h 3.8631 3.8631 v 39.393 c 0,34.9988 -0.1764,39.4607 -1.5818,40 -3.5207,1.351 -5.1726,0.265 -10.8735,-7.1486 z M 959,1142.5 V 1103 h 29.5 29.5 v 4 4 h -24.86916 -24.86916 l -0.61983,3.75 c -0.34091,2.0625 -0.62479,8.1375 -0.63084,13.5 L 967,1138 h 22.5575 22.5575 l -0.3075,4.25 -0.3075,4.25 -22.25,0.2691 -22.25,0.2692 v 13.4637 13.4637 l 25.25,0.2671 25.25,0.2672 0.3104,3.75 0.3103,3.75 H 988.56037 959 Z m 125.5684,-87.6655 c -2.7124,-0.5179 -8.258,-2.4787 -12.3237,-4.3571 -13.9791,-6.4588 -23.6315,-19.4599 -26.9489,-36.2985 -5.1794,-26.29029 11.523,-52.94779 37.3975,-59.68723 7.2445,-1.88695 23.1553,-1.90747 30.1757,-0.0389 6.9103,1.83923 14.6468,5.65972 19.3404,9.55076 l 3.7094,3.07515 -6.2042,7.89264 -6.2042,7.89265 -3.0052,-2.28769 c -7.6205,-5.80108 -11.4802,-7.07059 -21.5052,-7.07351 -7.9114,-0.002 -10.2851,0.38394 -14.1949,2.30976 -6.044,2.97704 -12.55,9.47604 -15.204,15.18748 -3.0039,6.46469 -2.9702,20.59309 0.065,27.17569 3.0834,6.6873 9.5053,13.2215 15.5501,15.8219 4.4412,1.9105 6.4469,2.1602 14.227,1.7711 5.4144,-0.2709 10.7663,-1.1635 13.307,-2.2195 l 4.25,-1.7664 V 1023.3914 1015 h -11.0375 -11.0376 l 0.2876,-9.25 0.2875,-9.25 21.1084,-0.26948 21.1084,-0.26947 0.6329,5.26945 c 0.3481,2.8982 0.6368,12.7888 0.6416,21.979 l 0.01,16.7096 -2.75,2.5553 c -4.1931,3.8964 -17.2166,10.3059 -24.364,11.9907 -7.039,1.6593 -19.669,1.8301 -27.3176,0.3694 z m 212.1661,0.1336 c -14.2915,-3.5802 -23.1804,-14.4968 -23.1804,-28.4681 0,-11.0833 4.9234,-19.3574 15.4859,-26.0253 l 3.9273,-2.47917 -3.2296,-6.24776 c -2.8062,-5.4286 -3.2271,-7.23113 -3.2105,-13.74777 0.029,-11.45257 4.5559,-18.45056 14.9728,-23.14704 6.3818,-2.87726 17.841,-3.14744 24.5552,-0.57894 5.7492,2.19939 11.4057,7.94011 13.4019,13.60171 4.5067,12.78141 -1.6889,25.63892 -16.4571,34.15297 -1.1938,0.6883 -0.076,2.3046 5.4732,7.918 3.8352,3.8793 7.2679,7.0533 7.6281,7.0533 0.5349,0 3.9969,-8.7022 5.4626,-13.731 0.2642,-0.9065 1.5788,-0.7081 4.9857,0.7523 2.5448,1.0908 6.3872,2.2648 8.5387,2.6088 2.1514,0.344 3.9117,0.7142 3.9117,0.8226 0,1.4192 -5.5142,15.7536 -7.083,18.4126 l -2.0955,3.5515 6.4371,6.2503 6.4371,6.2503 -2.829,2.7103 c -2.3569,2.2581 -3.9075,4.2997 -8.5534,11.2625 -0.1432,0.2146 -3.2566,-1.9229 -6.9186,-4.75 -3.6621,-2.8271 -7.0291,-5.1402 -7.4821,-5.1402 -0.4531,0 -2.4525,1.1053 -4.4432,2.4562 -8.9634,6.0827 -25.4532,9.0876 -35.7349,6.5119 z m 23.1931,-19.9311 4.2827,-2.185 -8.3027,-8.676 c -4.5665,-4.7718 -9.0666,-9.5163 -10.0002,-10.5433 -1.6419,-1.8061 -1.8476,-1.729 -6.2766,2.3535 -5.5067,5.0759 -6.64,9.0849 -4.0882,14.4623 3.5632,7.5089 14.5924,9.5843 24.385,4.5885 z m -0.4876,-49.97437 c 1.68,-1.75356 2.9274,-4.38281 3.2617,-6.87503 0.7275,-5.42453 -2.7406,-9.1876 -8.4677,-9.1876 -9.0046,0 -11.9911,9.35767 -5.6473,17.69489 2.189,2.87687 2.7148,3.09597 5.282,2.20105 1.568,-0.54662 4.0751,-2.27161 5.5713,-3.83331 z M 867,1004.0338 V 954 l 20.25,0.0309 c 11.1375,0.017 23.5524,0.45965 27.58866,0.98371 10.08728,1.30971 18.23438,5.16054 23.64134,11.17439 5.80609,6.45777 8.00341,13.00591 7.99009,23.81102 -0.0136,10.99678 -2.57489,17.06718 -10.10523,23.94948 -8.35788,7.6387 -13.81418,9.3101 -32.08874,9.8299 l -15.22387,0.4331 -0.27613,14.6437 -0.27612,14.6438 -10.75,0.2838 -10.75,0.2839 z m 50.0156,-0.8522 c 2.26529,-1.1823 4.31073,-3.46059 5.84618,-6.51184 3.18786,-6.33496 2.37887,-12.34419 -2.35828,-17.51726 L 917.15879,975.5 902.8294,975.17884 888.5,974.85767 888.80011,989.92884 889.10022,1005 h 12.21549 c 9.86488,0 12.88599,-0.3499 15.69989,-1.8184 z M 939,1053.4571 c 0,-0.7483 12.53636,-29.9579 21.25309,-49.5194 3.53843,-7.94074 9.96604,-22.43998 14.28358,-32.22055 l 7.85007,-17.78285 9.89855,0.28285 9.89851,0.28285 8.9814,20.5 c 13.528,30.8777 33.8348,78.0141 33.8348,78.5378 0,0.2542 -5.1313,0.4622 -11.403,0.4622 h -11.4029 l -4.4737,-10.5759 -4.4737,-10.5759 -21.32669,0.1126 c -11.72967,0.062 -21.53145,0.3173 -21.78172,0.5676 -0.25028,0.2503 -2.37299,4.8463 -4.71714,10.2133 l -4.26209,9.7583 -11.07953,0.2828 C 943.98579,1053.9383 939,1053.7917 939,1053.4571 Z M 998.82761,998.25 c -3.31893,-8.1125 -6.32539,-15.04851 -6.68102,-15.41335 -0.35562,-0.36484 -3.64235,6.27266 -7.30384,14.75 L 978.1855,1013 h 13.33827 13.33823 z m 155.41309,6 0.2593,-49.75 37.75,-0.26203 37.75,-0.26202 V 963.98797 974 h -27 -27 v 10 10 h 23.5 23.5 v 9.5 9.5 h -23.5 -23.5 v 10.5 10.5 h 27 27 v 10 10 h -38.0093 -38.0094 z m 259.4587,49.1161 C 1413.3148,1052.9814 1413,1030.4667 1413,1003.3333 V 954 l 21.25,0.0198 c 11.6875,0.0109 24.3218,0.46391 28.0761,1.00671 13.3066,1.92384 22.1256,8.28418 27.5278,19.85347 2.2347,4.78567 2.6191,6.95613 2.5896,14.62001 -0.029,7.50918 -0.4611,9.92538 -2.6089,14.58651 -6.4158,13.9233 -17.4666,19.3303 -42.0501,20.5745 l -12.7314,0.6444 -0.2766,14.0973 -0.2765,14.0973 -10.0506,0.2828 c -5.5278,0.1555 -10.3653,-0.032 -10.75,-0.4167 z m 48.9952,-50.0206 c 9.5226,-4.68676 10.2745,-19.92612 1.3054,-26.45676 -1.9949,-1.45254 -5.177,-1.94114 -15.75,-2.41837 L 1435,973.8723 v 16.21099 16.21101 l 11.9724,-0.5516 c 8.742,-0.4028 12.9842,-1.0496 15.7222,-2.3972 z M 1506,1004 v -50 h 10.5 10.5 v 50 50 h -10.5 -10.5 z m 34,49.412 c 0,-0.7316 5.8913,-9.265 23.1991,-33.6035 l 11.8698,-16.6916 -14.8839,-21.30844 c -8.1862,-11.71965 -15.6607,-22.51897 -16.6102,-23.99848 l -1.7262,-2.69001 12.1504,-0.30999 c 9.8236,-0.25062 12.4055,-0.0227 13.483,1.19002 0.733,0.825 5.3642,7.77994 10.2916,15.45543 4.9274,7.67548 9.403,14.10343 9.9457,14.28433 0.5427,0.1809 5.422,-6.54905 10.8429,-14.95543 5.4208,-8.40638 10.3245,-15.61494 10.897,-16.01902 1.232,-0.86962 22.941,-1.03177 23.795,-0.17773 0.5527,0.55263 -9.9439,16.52993 -25.4305,38.70901 l -6.8405,9.79661 6.8376,10.2034 c 3.7607,5.6119 11.4145,16.8441 17.0084,24.9605 5.5939,8.1164 10.1708,14.9789 10.1708,15.25 0,0.2711 -5.5133,0.4929 -12.2517,0.4929 h -12.2518 l -11.442,-17.0062 c -6.2931,-9.3535 -11.8223,-16.626 -12.287,-16.1613 -0.4647,0.4647 -5.665,8.005 -11.5562,16.7562 L 1564.5,1053.5 l -12.25,0.2808 c -6.7375,0.1544 -12.25,-0.012 -12.25,-0.3688 z m 105.7609,-22.65 c -0.1315,-12.7941 -0.2084,-27.087 -0.171,-31.762 0.037,-4.675 0.145,-16.7125 0.2391,-26.75 L 1646,954 h 37.5 37.5 v 10 10 h -27 -27 v 10 10 h 24 24 v 9.4822 9.4822 l -24.25,0.2678 -24.25,0.2678 -0.2848,10.2341 -0.2848,10.2341 27.7848,0.2659 27.7848,0.2659 v 9.5 9.5 l -37.75,0.262 -37.75,0.2621 z M 1737,1003.9662 v -50.03386 l 10.5495,0.28383 10.5495,0.28383 0.2005,39.74541 0.2005,39.74539 h 25.25 25.25 v 10 10 h -36 -36 z M 651.80715,1005.5018 652.11431,993 H 664.55715 677 v 12.5 12.5 H 664.25 651.5 Z M 595,980.125 c 0,-5.98125 0.28125,-12.28125 0.625,-14 L 596.25,963 H 609.625 623 v 14 14 H 609 595 Z M 537,947.5 V 925 H 559.5 582 V 947.5 970 H 559.5 537 Z m 105,-10.86188 v -21.36189 l 21,-0.10254 21,-0.10253 V 936.53558 958 H 663 642 Z M 722,920 v -12 h 12.5 12.5 v 12 12 H 734.5 722 Z m -120.99866,-32.25 10e-4,-14.25 13.99866,-0.1891 13.99866,-0.1891 0.0695,9.1891 c 0.0382,5.054 0.27316,11.5516 0.52211,14.4391 L 630.0439,902 H 615.52211 601 Z M 675,872.5 V 857 h 15 15 V 872.5 888 H 690 675 Z M 639,828 v -10 h 10 10 v 10 10 h -10 -10 z m 76.53459,8.20126 C 715.24057,835.90723 715,831.24167 715,825.83333 V 816 h 11 11 v 10.48372 10.48372 l -10.46541,-0.1158 c -5.75597,-0.0637 -10.70597,-0.35636 -11,-0.65038 z m -46.1016,-42.69779 0.067,-12.49654 12.25,-0.003 L 694,781 v 12.5 12.5 h -12.31701 -12.317 z"
       id="path1" />
  </g>
  <g
     inkscape:groupmode="layer"
     inkscape:label="Image copy"
     id="g7"
     style="display:inline;fill-opacity:1;fill:url(#linearGradient15)">
    <path
       style="display:inline;fill:url(#linearGradient15);fill-opacity:1"
       d="m 553.93776,1273.9893 c -11.2862,-1.7663 -23.09918,-8.1013 -30.91224,-16.5774 -4.13556,-4.4866 -8.99699,-13.4079 -9.01575,-16.5451 -0.024,-4.0078 -68.02946,-16.4957 -116.00977,-21.3029 -28.56623,-2.862 -41.32905,-3.6282 -70.75,-4.2473 L 298,1214.7012 V 1050.3506 886 h 9 9 l 0.25,115.75 c 0.1375,63.6625 0.25,129.475 0.25,146.25 v 30.5 l 12.5,0.7057 c 61.7721,3.4872 112.29283,14.2057 164.82428,34.9692 12.46888,4.9285 24.67101,10.6679 24.02691,11.3015 -0.19315,0.19 -6.42619,-1.6666 -13.85119,-4.1258 -15.77207,-5.2236 -44.69168,-11.2266 -71.36558,-14.8136 -10.37607,-1.3954 -19.60107,-2.513 -20.5,-2.4837 -0.89893,0.029 7.00154,1.8328 17.55659,4.0076 22.35245,4.6056 28.4973,6.3578 89.80899,25.6089 4.4,1.3816 10.925,4.1249 14.5,6.0963 3.575,1.9714 8.77671,4.8428 11.55935,6.381 2.78265,1.5381 7.85783,3.5135 11.2782,4.3898 8.76996,2.2468 14.55285,0.8185 30.66226,-7.573 26.14941,-13.6214 72.76606,-28.3529 115.00019,-36.3416 15.91831,-3.011 12.00672,-3.3368 -7,-0.5831 -22.30835,3.2321 -51.77904,9.5208 -70.06926,14.9519 -9.29572,2.7603 -17.29848,4.8863 -17.78391,4.7245 -2.1281,-0.7094 40.2907,-17.7036 60.33727,-24.1728 33.67306,-10.8668 84.50576,-19.5131 130.2659,-22.1573 l 11.75,-0.679 V 1032.3532 886 h 9 9 l 0.0622,134.75 c 0.0342,74.1125 0.14668,147.9904 0.25,164.1732 l 0.18784,29.4231 -8.5,0.263 c -4.675,0.1446 -18.175,0.5189 -30,0.8318 -56.91348,1.506 -117.96366,9.2852 -171.92449,21.9072 -5.33938,1.249 -5.4525,1.3513 -7.21003,6.5219 -6.8463,20.1414 -32.83231,33.89 -56.92772,30.1191 z m 165.79141,-70.5935 c -0.33229,-0.3323 -1.1948,-0.3678 -1.91667,-0.079 -0.79773,0.3192 -0.56078,0.5562 0.60417,0.6042 1.05416,0.043 1.64479,-0.193 1.3125,-0.5253 z M 567.22998,1148.75 c -0.0309,-43.0375 0.16001,-79.0375 0.42429,-80 0.43241,-1.5748 2.10034,-1.7499 16.66312,-1.749 l 16.18261,9e-4 V 1049.251 1031.5 l 20.75,-0.2703 20.75,-0.2703 V 1048.9797 1067 h 17 17 v -16.9701 -16.9701 l 12.75,-0.2799 12.75,-0.2799 v -32 -32 l 16.75,-0.27418 16.75,-0.27418 V 984.97582 1002 h 15.4536 15.4536 l 0.0627,70.25 0.0627,70.25 -17.20771,3.3451 c -29.2526,5.6865 -62.07673,15.7867 -89.82493,27.6396 -33.71255,14.4007 -62.39486,30.8139 -84.19662,48.1809 -3.68314,2.9339 -6.88124,5.3344 -7.1069,5.3344 -0.22565,0 -0.43558,-35.2125 -0.4665,-78.25 z M 641,1104.5818 c 0,-10.13 0.27314,-19.13 0.60699,-20 0.54139,-1.4109 -1.61997,-1.5818 -20,-1.5818 H 601 v 20 20 h 20 20 z M 698,1108 v -12 h -12 -12 v 12 12 h 12 12 z m 35.89915,-40.6298 3.14915,-0.6299 -0.27415,-16.1201 L 736.5,1034.5 l -10,0.068 c -5.5,0.037 -12.8125,0.1498 -16.25,0.25 L 704,1035 v 16.5 16.5 h 13.375 c 7.35625,0 14.79212,-0.2834 16.52415,-0.6298 z M 548,1219.3815 c -18.4878,-14.0619 -54.45383,-34.2734 -83.20373,-46.7573 C 439.12222,1161.476 407.91238,1151.7968 379,1146.0161 l -18.5,-3.6989 -0.0461,-154.90861 c -0.0253,-85.19973 0.10952,-162.03187 0.29969,-170.73809 l 0.34577,-15.82951 4.20031,0.65237 c 2.31017,0.3588 10.95031,1.99241 19.20031,3.63025 66.60008,13.22186 121.48686,37.50948 165.29309,73.14285 l 7.29309,5.93243 -0.29309,15.65056 L 556.5,915.5 l -14.49819,0.0762 -14.49818,0.0762 -0.21824,4.4238 c -0.12004,2.43309 0.0469,16.6863 0.37096,31.6738 L 528.24556,979 H 542.62278 557 v 123.5 c 0,67.925 -0.1125,123.4655 -0.25,123.4233 -0.1375,-0.042 -4.075,-2.986 -8.75,-6.5418 z m -38.14377,-257.23552 0.35623,-38.85057 -13.85623,-7.59849 c -16.97759,-9.31018 -23.20366,-12.1522 -39.85623,-18.1932 -12.11102,-4.39348 -41.7226,-12.4692 -45.80908,-12.49313 -1.71006,-0.01 -1.79259,1.53566 -1.50789,28.23941 0.16565,15.5375 0.444,33.24099 0.61856,39.34109 l 0.31738,11.09109 10.59266,2.22263 c 27.26665,5.7213 63.74358,19.69983 82.28837,31.53417 3.025,1.93041 5.725,3.52052 6,3.53372 0.275,0.013 0.6603,-17.45891 0.85623,-38.82672 z M 534.45,1224.0951 c -2.25834,-2.1512 -30.19745,-15.4359 -43.95,-20.8977 -47.74384,-18.9614 -104.52958,-31.348 -158,-34.4643 l -4,-0.2331 V 1005 841.5 l 9.24685,-0.28748 9.24686,-0.28749 0.25314,155.28749 L 347.5,1151.5 l 3.5,0.2792 c 1.925,0.1536 9.8,1.412 17.5,2.7964 49.32881,8.8691 92.03397,24.5179 137,50.202 19.4531,11.1113 33.54633,20.1618 31.45,20.1966 -0.8525,0.014 -1.9775,-0.3814 -2.5,-0.8791 z m 63.05,-5.6384 c 50.99151,-33.1157 107.89915,-55.0871 167.49004,-64.6661 L 779,1151.5385 V 996.26926 841 h 8.8624 8.8624 l 0.5633,18.75 c 0.30981,10.3125 0.63853,83.82222 0.73048,163.3549 l 0.16718,144.605 -8.84288,0.7011 c -63.65011,5.0465 -129.28316,22.4884 -185.24628,49.2289 -8.47187,4.0481 -15.67187,7.3491 -16,7.3356 -0.32813,-0.013 3.9034,-2.9469 9.4034,-6.5188 z m 457,-35.4327 c -7.1022,-1.568 -12.8818,-3.998 -18.25,-7.6732 -2.8875,-1.9769 -5.25,-3.9054 -5.25,-4.2855 0,-0.3801 1.3521,-1.9865 3.0047,-3.5698 l 3.0047,-2.8787 3.2453,3.1404 c 9.9623,9.6402 31.8429,11.1545 39.7383,2.7503 3.2097,-3.4167 3.7976,-10.9278 1.1807,-15.0875 -2.4875,-3.9542 -7.0681,-6.0874 -20.6737,-9.6278 -6.05,-1.5743 -12.9247,-3.7926 -15.2772,-4.9297 -13.0912,-6.3273 -14.789,-25.2881 -3.0579,-34.1504 3.9017,-2.9476 12.5975,-5.7121 17.9674,-5.7121 8.5775,0 21.0197,4.2042 26.7715,9.0461 l 2.4037,2.0235 -2.7281,2.8475 -2.7281,2.8476 -4.8924,-3.2924 c -7.3068,-4.917 -17.9203,-6.7217 -26.1266,-4.4424 -5.2879,1.4687 -9.8323,6.9955 -9.8323,11.9578 0,8.846 3.3052,11.4854 20.0275,15.9926 19.625,5.2897 25.7089,9.4407 27.8585,19.0078 2.2654,10.0827 -2.9242,19.6311 -13.0335,23.98 -5.7529,2.4748 -16.9785,3.4631 -23.3525,2.0559 z m 118.5453,-0.1164 c -20.4225,-4.0033 -34.9279,-25.4506 -31.3479,-46.3504 3.1462,-18.3675 16.0535,-31.5141 34.0406,-34.6716 10.6148,-1.8634 24.4058,1.7197 32.762,8.5119 l 3,2.4385 -2.9055,3.049 -2.9055,3.0491 -3.2533,-2.8564 c -7.3535,-6.4564 -23.2142,-8.4289 -33.1495,-4.1225 -6.2554,2.7114 -13.5036,10.1084 -16.4481,16.7858 -3.21,7.2797 -3.5831,18.3033 -0.8633,25.5111 2.9651,7.8581 8.595,14.6578 15.0356,18.1598 9.9344,5.4018 24.1518,4.5722 34.2396,-1.9979 l 3.75,-2.4424 v -10.3323 -10.3324 l -12.5,0.4816 -12.5,0.4815 v -4.635 -4.635 h 4.843 c 2.6636,0 10.3136,0.2942 17,0.6537 l 12.157,0.6537 v 15.2276 15.2276 l -3.25,2.4768 c -11.2083,8.5418 -25.1777,12.1238 -37.7047,9.6682 z m 170.2174,-0.3581 c -6.7013,-1.5242 -17.0661,-6.5698 -19.8775,-9.6763 -1.6478,-1.8209 -1.5978,-2.0418 1.0997,-4.8575 l 2.8261,-2.9498 3.5437,3.1114 c 5.715,5.0179 11.621,7.1367 21.2412,7.6204 7.1219,0.3581 9.3895,0.081 13.2233,-1.6147 7.6601,-3.3884 10.4161,-10.0942 7.2564,-17.6562 -1.8624,-4.4574 -6.6043,-6.8271 -21.3984,-10.6935 -6.4224,-1.6786 -13.2522,-3.8589 -15.1772,-4.8453 -12.4552,-6.382 -14.7726,-22.7259 -4.6103,-32.5154 9.255,-8.9154 29.1401,-9.5959 42.0047,-1.4374 5.7316,3.6348 6.5539,5.4609 3.7306,8.2842 -1.8074,1.8074 -2.4313,1.9504 -3.8889,0.8911 -4.7154,-3.4269 -12.9333,-6.4964 -18.5969,-6.9461 -8.3534,-0.6633 -13.7536,0.9629 -17.5479,5.2843 -5.2663,5.9981 -3.8104,15.8553 2.8698,19.4305 0.9934,0.5316 6.92,2.3571 13.1704,4.0566 22.775,6.1925 28.8685,11.1433 28.8685,23.4544 0,6.0843 -2.2001,11.5124 -6.1651,15.211 -6.4146,5.9834 -20.7007,8.5484 -32.5722,5.8483 z m -474.59603,-0.2162 C 868.3,1181.9667 868,1163.9667 868,1142.3333 V 1103 l 17.75,0.012 c 18.79111,0.013 24.19235,0.848 32.99407,5.1033 6.47738,3.1315 13.82455,10.7289 17.06776,17.649 2.42921,5.1833 2.68817,6.8436 2.68817,17.2358 0,10.4939 -0.23814,11.9844 -2.72198,17.0373 -1.4971,3.0455 -4.3339,7.4204 -6.30402,9.722 -4.5138,5.2734 -15.66721,10.8387 -24.474,12.212 -7.22958,1.1274 -35.28842,1.4069 -36.33333,0.362 z m 44.09513,-10.7373 c 7.07182,-3.2522 12.43076,-8.5797 15.56517,-15.4736 3.0337,-6.6724 2.94559,-19.6736 -0.18109,-26.7212 -2.81296,-6.3405 -9.09056,-12.5952 -15.64588,-15.5889 -4.35834,-1.9904 -6.95708,-2.3289 -20.25,-2.6376 L 877,1110.8205 v 32.1815 32.1814 l 14.75,-0.3538 c 13.74487,-0.3298 15.17671,-0.5501 21.0118,-3.2336 z m 199.8473,10.6797 c -0.335,-0.335 -0.6091,-18.309 -0.6091,-39.9424 V 1103 h 4.5115 4.5114 l -0.2614,39.6159 -0.2615,39.6159 -3.6409,0.3265 c -2.0025,0.1796 -3.915,0.052 -4.25,-0.2826 z m 177.9356,-7.0313 c -3.2753,-4.2594 -15.2003,-19.1303 -26.5,-33.0464 l -20.5447,-25.3021 -0.2637,32.5521 -0.2636,32.552 H 1238.9863 1235 v -39.5 -39.5 h 3.8592 c 3.7709,0 4.1654,0.3715 17.25,16.2435 7.3649,8.9339 18.7328,22.891 25.2619,31.0158 10.3338,12.8593 15.691,18.8862 13.1885,14.8372 -0.4121,-0.6669 -0.4201,-14.9114 -0.018,-31.6545 l 0.7318,-30.442 h 3.8631 3.8631 v 39.393 c 0,34.9988 -0.1764,39.4607 -1.5818,40 -3.5207,1.351 -5.1726,0.265 -10.8735,-7.1486 z M 959,1142.5 V 1103 h 29.5 29.5 v 4 4 h -24.86916 -24.86916 l -0.61983,3.75 c -0.34091,2.0625 -0.62479,8.1375 -0.63084,13.5 L 967,1138 h 22.5575 22.5575 l -0.3075,4.25 -0.3075,4.25 -22.25,0.2691 -22.25,0.2692 v 13.4637 13.4637 l 25.25,0.2671 25.25,0.2672 0.3104,3.75 0.3103,3.75 H 988.56037 959 Z m 125.5684,-87.6655 c -2.7124,-0.5179 -8.258,-2.4787 -12.3237,-4.3571 -13.9791,-6.4588 -23.6315,-19.4599 -26.9489,-36.2985 -5.1794,-26.29029 11.523,-52.94779 37.3975,-59.68723 7.2445,-1.88695 23.1553,-1.90747 30.1757,-0.0389 6.9103,1.83923 14.6468,5.65972 19.3404,9.55076 l 3.7094,3.07515 -6.2042,7.89264 -6.2042,7.89265 -3.0052,-2.28769 c -7.6205,-5.80108 -11.4802,-7.07059 -21.5052,-7.07351 -7.9114,-0.002 -10.2851,0.38394 -14.1949,2.30976 -6.044,2.97704 -12.55,9.47604 -15.204,15.18748 -3.0039,6.46469 -2.9702,20.59309 0.065,27.17569 3.0834,6.6873 9.5053,13.2215 15.5501,15.8219 4.4412,1.9105 6.4469,2.1602 14.227,1.7711 5.4144,-0.2709 10.7663,-1.1635 13.307,-2.2195 l 4.25,-1.7664 V 1023.3914 1015 h -11.0375 -11.0376 l 0.2876,-9.25 0.2875,-9.25 21.1084,-0.26948 21.1084,-0.26947 0.6329,5.26945 c 0.3481,2.8982 0.6368,12.7888 0.6416,21.979 l 0.01,16.7096 -2.75,2.5553 c -4.1931,3.8964 -17.2166,10.3059 -24.364,11.9907 -7.039,1.6593 -19.669,1.8301 -27.3176,0.3694 z m 212.1661,0.1336 c -14.2915,-3.5802 -23.1804,-14.4968 -23.1804,-28.4681 0,-11.0833 4.9234,-19.3574 15.4859,-26.0253 l 3.9273,-2.47917 -3.2296,-6.24776 c -2.8062,-5.4286 -3.2271,-7.23113 -3.2105,-13.74777 0.029,-11.45257 4.5559,-18.45056 14.9728,-23.14704 6.3818,-2.87726 17.841,-3.14744 24.5552,-0.57894 5.7492,2.19939 11.4057,7.94011 13.4019,13.60171 4.5067,12.78141 -1.6889,25.63892 -16.4571,34.15297 -1.1938,0.6883 -0.076,2.3046 5.4732,7.918 3.8352,3.8793 7.2679,7.0533 7.6281,7.0533 0.5349,0 3.9969,-8.7022 5.4626,-13.731 0.2642,-0.9065 1.5788,-0.7081 4.9857,0.7523 2.5448,1.0908 6.3872,2.2648 8.5387,2.6088 2.1514,0.344 3.9117,0.7142 3.9117,0.8226 0,1.4192 -5.5142,15.7536 -7.083,18.4126 l -2.0955,3.5515 6.4371,6.2503 6.4371,6.2503 -2.829,2.7103 c -2.3569,2.2581 -3.9075,4.2997 -8.5534,11.2625 -0.1432,0.2146 -3.2566,-1.9229 -6.9186,-4.75 -3.6621,-2.8271 -7.0291,-5.1402 -7.4821,-5.1402 -0.4531,0 -2.4525,1.1053 -4.4432,2.4562 -8.9634,6.0827 -25.4532,9.0876 -35.7349,6.5119 z m 23.1931,-19.9311 4.2827,-2.185 -8.3027,-8.676 c -4.5665,-4.7718 -9.0666,-9.5163 -10.0002,-10.5433 -1.6419,-1.8061 -1.8476,-1.729 -6.2766,2.3535 -5.5067,5.0759 -6.64,9.0849 -4.0882,14.4623 3.5632,7.5089 14.5924,9.5843 24.385,4.5885 z m -0.4876,-49.97437 c 1.68,-1.75356 2.9274,-4.38281 3.2617,-6.87503 0.7275,-5.42453 -2.7406,-9.1876 -8.4677,-9.1876 -9.0046,0 -11.9911,9.35767 -5.6473,17.69489 2.189,2.87687 2.7148,3.09597 5.282,2.20105 1.568,-0.54662 4.0751,-2.27161 5.5713,-3.83331 z M 867,1004.0338 V 954 l 20.25,0.0309 c 11.1375,0.017 23.5524,0.45965 27.58866,0.98371 10.08728,1.30971 18.23438,5.16054 23.64134,11.17439 5.80609,6.45777 8.00341,13.00591 7.99009,23.81102 -0.0136,10.99678 -2.57489,17.06718 -10.10523,23.94948 -8.35788,7.6387 -13.81418,9.3101 -32.08874,9.8299 l -15.22387,0.4331 -0.27613,14.6437 -0.27612,14.6438 -10.75,0.2838 -10.75,0.2839 z m 50.0156,-0.8522 c 2.26529,-1.1823 4.31073,-3.46059 5.84618,-6.51184 3.18786,-6.33496 2.37887,-12.34419 -2.35828,-17.51726 L 917.15879,975.5 902.8294,975.17884 888.5,974.85767 888.80011,989.92884 889.10022,1005 h 12.21549 c 9.86488,0 12.88599,-0.3499 15.69989,-1.8184 z M 939,1053.4571 c 0,-0.7483 12.53636,-29.9579 21.25309,-49.5194 3.53843,-7.94074 9.96604,-22.43998 14.28358,-32.22055 l 7.85007,-17.78285 9.89855,0.28285 9.89851,0.28285 8.9814,20.5 c 13.528,30.8777 33.8348,78.0141 33.8348,78.5378 0,0.2542 -5.1313,0.4622 -11.403,0.4622 h -11.4029 l -4.4737,-10.5759 -4.4737,-10.5759 -21.32669,0.1126 c -11.72967,0.062 -21.53145,0.3173 -21.78172,0.5676 -0.25028,0.2503 -2.37299,4.8463 -4.71714,10.2133 l -4.26209,9.7583 -11.07953,0.2828 C 943.98579,1053.9383 939,1053.7917 939,1053.4571 Z M 998.82761,998.25 c -3.31893,-8.1125 -6.32539,-15.04851 -6.68102,-15.41335 -0.35562,-0.36484 -3.64235,6.27266 -7.30384,14.75 L 978.1855,1013 h 13.33827 13.33823 z m 155.41309,6 0.2593,-49.75 37.75,-0.26203 37.75,-0.26202 V 963.98797 974 h -27 -27 v 10 10 h 23.5 23.5 v 9.5 9.5 h -23.5 -23.5 v 10.5 10.5 h 27 27 v 10 10 h -38.0093 -38.0094 z m 259.4587,49.1161 C 1413.3148,1052.9814 1413,1030.4667 1413,1003.3333 V 954 l 21.25,0.0198 c 11.6875,0.0109 24.3218,0.46391 28.0761,1.00671 13.3066,1.92384 22.1256,8.28418 27.5278,19.85347 2.2347,4.78567 2.6191,6.95613 2.5896,14.62001 -0.029,7.50918 -0.4611,9.92538 -2.6089,14.58651 -6.4158,13.9233 -17.4666,19.3303 -42.0501,20.5745 l -12.7314,0.6444 -0.2766,14.0973 -0.2765,14.0973 -10.0506,0.2828 c -5.5278,0.1555 -10.3653,-0.032 -10.75,-0.4167 z m 48.9952,-50.0206 c 9.5226,-4.68676 10.2745,-19.92612 1.3054,-26.45676 -1.9949,-1.45254 -5.177,-1.94114 -15.75,-2.41837 L 1435,973.8723 v 16.21099 16.21101 l 11.9724,-0.5516 c 8.742,-0.4028 12.9842,-1.0496 15.7222,-2.3972 z M 1506,1004 v -50 h 10.5 10.5 v 50 50 h -10.5 -10.5 z m 34,49.412 c 0,-0.7316 5.8913,-9.265 23.1991,-33.6035 l 11.8698,-16.6916 -14.8839,-21.30844 c -8.1862,-11.71965 -15.6607,-22.51897 -16.6102,-23.99848 l -1.7262,-2.69001 12.1504,-0.30999 c 9.8236,-0.25062 12.4055,-0.0227 13.483,1.19002 0.733,0.825 5.3642,7.77994 10.2916,15.45543 4.9274,7.67548 9.403,14.10343 9.9457,14.28433 0.5427,0.1809 5.422,-6.54905 10.8429,-14.95543 5.4208,-8.40638 10.3245,-15.61494 10.897,-16.01902 1.232,-0.86962 22.941,-1.03177 23.795,-0.17773 0.5527,0.55263 -9.9439,16.52993 -25.4305,38.70901 l -6.8405,9.79661 6.8376,10.2034 c 3.7607,5.6119 11.4145,16.8441 17.0084,24.9605 5.5939,8.1164 10.1708,14.9789 10.1708,15.25 0,0.2711 -5.5133,0.4929 -12.2517,0.4929 h -12.2518 l -11.442,-17.0062 c -6.2931,-9.3535 -11.8223,-16.626 -12.287,-16.1613 -0.4647,0.4647 -5.665,8.005 -11.5562,16.7562 L 1564.5,1053.5 l -12.25,0.2808 c -6.7375,0.1544 -12.25,-0.012 -12.25,-0.3688 z m 105.7609,-22.65 c -0.1315,-12.7941 -0.2084,-27.087 -0.171,-31.762 0.037,-4.675 0.145,-16.7125 0.2391,-26.75 L 1646,954 h 37.5 37.5 v 10 10 h -27 -27 v 10 10 h 24 24 v 9.4822 9.4822 l -24.25,0.2678 -24.25,0.2678 -0.2848,10.2341 -0.2848,10.2341 27.7848,0.2659 27.7848,0.2659 v 9.5 9.5 l -37.75,0.262 -37.75,0.2621 z M 1737,1003.9662 v -50.03386 l 10.5495,0.28383 10.5495,0.28383 0.2005,39.74541 0.2005,39.74539 h 25.25 25.25 v 10 10 h -36 -36 z M 651.80715,1005.5018 652.11431,993 H 664.55715 677 v 12.5 12.5 H 664.25 651.5 Z M 595,980.125 c 0,-5.98125 0.28125,-12.28125 0.625,-14 L 596.25,963 H 609.625 623 v 14 14 H 609 595 Z M 537,947.5 V 925 H 559.5 582 V 947.5 970 H 559.5 537 Z m 105,-10.86188 v -21.36189 l 21,-0.10254 21,-0.10253 V 936.53558 958 H 663 642 Z M 722,920 v -12 h 12.5 12.5 v 12 12 H 734.5 722 Z m -120.99866,-32.25 10e-4,-14.25 13.99866,-0.1891 13.99866,-0.1891 0.0695,9.1891 c 0.0382,5.054 0.27316,11.5516 0.52211,14.4391 L 630.0439,902 H 615.52211 601 Z M 675,872.5 V 857 h 15 15 V 872.5 888 H 690 675 Z M 639,828 v -10 h 10 10 v 10 10 h -10 -10 z m 76.53459,8.20126 C 715.24057,835.90723 715,831.24167 715,825.83333 V 816 h 11 11 v 10.48372 10.48372 l -10.46541,-0.1158 c -5.75597,-0.0637 -10.70597,-0.35636 -11,-0.65038 z m -46.1016,-42.69779 0.067,-12.49654 12.25,-0.003 L 694,781 v 12.5 12.5 h -12.31701 -12.317 z"
       id="path7" />
  </g>
  <g
     inkscape:groupmode="layer"
     inkscape:label="Image copy"
     id="g15"
     style="display:inline;fill-opacity:1;fill:url(#linearGradient24)">
    <path
       style="display:inline;fill:url(#linearGradient24);fill-opacity:1"
       d="m 553.93776,1273.9893 c -11.2862,-1.7663 -23.09918,-8.1013 -30.91224,-16.5774 -4.13556,-4.4866 -8.99699,-13.4079 -9.01575,-16.5451 -0.024,-4.0078 -68.02946,-16.4957 -116.00977,-21.3029 -28.56623,-2.862 -41.32905,-3.6282 -70.75,-4.2473 L 298,1214.7012 V 1050.3506 886 h 9 9 l 0.25,115.75 c 0.1375,63.6625 0.25,129.475 0.25,146.25 v 30.5 l 12.5,0.7057 c 61.7721,3.4872 112.29283,14.2057 164.82428,34.9692 12.46888,4.9285 24.67101,10.6679 24.02691,11.3015 -0.19315,0.19 -6.42619,-1.6666 -13.85119,-4.1258 -15.77207,-5.2236 -44.69168,-11.2266 -71.36558,-14.8136 -10.37607,-1.3954 -19.60107,-2.513 -20.5,-2.4837 -0.89893,0.029 7.00154,1.8328 17.55659,4.0076 22.35245,4.6056 28.4973,6.3578 89.80899,25.6089 4.4,1.3816 10.925,4.1249 14.5,6.0963 3.575,1.9714 8.77671,4.8428 11.55935,6.381 2.78265,1.5381 7.85783,3.5135 11.2782,4.3898 8.76996,2.2468 14.55285,0.8185 30.66226,-7.573 26.14941,-13.6214 72.76606,-28.3529 115.00019,-36.3416 15.91831,-3.011 12.00672,-3.3368 -7,-0.5831 -22.30835,3.2321 -51.77904,9.5208 -70.06926,14.9519 -9.29572,2.7603 -17.29848,4.8863 -17.78391,4.7245 -2.1281,-0.7094 40.2907,-17.7036 60.33727,-24.1728 33.67306,-10.8668 84.50576,-19.5131 130.2659,-22.1573 l 11.75,-0.679 V 1032.3532 886 h 9 9 l 0.0622,134.75 c 0.0342,74.1125 0.14668,147.9904 0.25,164.1732 l 0.18784,29.4231 -8.5,0.263 c -4.675,0.1446 -18.175,0.5189 -30,0.8318 -56.91348,1.506 -117.96366,9.2852 -171.92449,21.9072 -5.33938,1.249 -5.4525,1.3513 -7.21003,6.5219 -6.8463,20.1414 -32.83231,33.89 -56.92772,30.1191 z m 165.79141,-70.5935 c -0.33229,-0.3323 -1.1948,-0.3678 -1.91667,-0.079 -0.79773,0.3192 -0.56078,0.5562 0.60417,0.6042 1.05416,0.043 1.64479,-0.193 1.3125,-0.5253 z M 567.22998,1148.75 c -0.0309,-43.0375 0.16001,-79.0375 0.42429,-80 0.43241,-1.5748 2.10034,-1.7499 16.66312,-1.749 l 16.18261,9e-4 V 1049.251 1031.5 l 20.75,-0.2703 20.75,-0.2703 V 1048.9797 1067 h 17 17 v -16.9701 -16.9701 l 12.75,-0.2799 12.75,-0.2799 v -32 -32 l 16.75,-0.27418 16.75,-0.27418 V 984.97582 1002 h 15.4536 15.4536 l 0.0627,70.25 0.0627,70.25 -17.20771,3.3451 c -29.2526,5.6865 -62.07673,15.7867 -89.82493,27.6396 -33.71255,14.4007 -62.39486,30.8139 -84.19662,48.1809 -3.68314,2.9339 -6.88124,5.3344 -7.1069,5.3344 -0.22565,0 -0.43558,-35.2125 -0.4665,-78.25 z M 641,1104.5818 c 0,-10.13 0.27314,-19.13 0.60699,-20 0.54139,-1.4109 -1.61997,-1.5818 -20,-1.5818 H 601 v 20 20 h 20 20 z M 698,1108 v -12 h -12 -12 v 12 12 h 12 12 z m 35.89915,-40.6298 3.14915,-0.6299 -0.27415,-16.1201 L 736.5,1034.5 l -10,0.068 c -5.5,0.037 -12.8125,0.1498 -16.25,0.25 L 704,1035 v 16.5 16.5 h 13.375 c 7.35625,0 14.79212,-0.2834 16.52415,-0.6298 z M 548,1219.3815 c -18.4878,-14.0619 -54.45383,-34.2734 -83.20373,-46.7573 C 439.12222,1161.476 407.91238,1151.7968 379,1146.0161 l -18.5,-3.6989 -0.0461,-154.90861 c -0.0253,-85.19973 0.10952,-162.03187 0.29969,-170.73809 l 0.34577,-15.82951 4.20031,0.65237 c 2.31017,0.3588 10.95031,1.99241 19.20031,3.63025 66.60008,13.22186 121.48686,37.50948 165.29309,73.14285 l 7.29309,5.93243 -0.29309,15.65056 L 556.5,915.5 l -14.49819,0.0762 -14.49818,0.0762 -0.21824,4.4238 c -0.12004,2.43309 0.0469,16.6863 0.37096,31.6738 L 528.24556,979 H 542.62278 557 v 123.5 c 0,67.925 -0.1125,123.4655 -0.25,123.4233 -0.1375,-0.042 -4.075,-2.986 -8.75,-6.5418 z m -38.14377,-257.23552 0.35623,-38.85057 -13.85623,-7.59849 c -16.97759,-9.31018 -23.20366,-12.1522 -39.85623,-18.1932 -12.11102,-4.39348 -41.7226,-12.4692 -45.80908,-12.49313 -1.71006,-0.01 -1.79259,1.53566 -1.50789,28.23941 0.16565,15.5375 0.444,33.24099 0.61856,39.34109 l 0.31738,11.09109 10.59266,2.22263 c 27.26665,5.7213 63.74358,19.69983 82.28837,31.53417 3.025,1.93041 5.725,3.52052 6,3.53372 0.275,0.013 0.6603,-17.45891 0.85623,-38.82672 z M 534.45,1224.0951 c -2.25834,-2.1512 -30.19745,-15.4359 -43.95,-20.8977 -47.74384,-18.9614 -104.52958,-31.348 -158,-34.4643 l -4,-0.2331 V 1005 841.5 l 9.24685,-0.28748 9.24686,-0.28749 0.25314,155.28749 L 347.5,1151.5 l 3.5,0.2792 c 1.925,0.1536 9.8,1.412 17.5,2.7964 49.32881,8.8691 92.03397,24.5179 137,50.202 19.4531,11.1113 33.54633,20.1618 31.45,20.1966 -0.8525,0.014 -1.9775,-0.3814 -2.5,-0.8791 z m 63.05,-5.6384 c 50.99151,-33.1157 107.89915,-55.0871 167.49004,-64.6661 L 779,1151.5385 V 996.26926 841 h 8.8624 8.8624 l 0.5633,18.75 c 0.30981,10.3125 0.63853,83.82222 0.73048,163.3549 l 0.16718,144.605 -8.84288,0.7011 c -63.65011,5.0465 -129.28316,22.4884 -185.24628,49.2289 -8.47187,4.0481 -15.67187,7.3491 -16,7.3356 -0.32813,-0.013 3.9034,-2.9469 9.4034,-6.5188 z m 457,-35.4327 c -7.1022,-1.568 -12.8818,-3.998 -18.25,-7.6732 -2.8875,-1.9769 -5.25,-3.9054 -5.25,-4.2855 0,-0.3801 1.3521,-1.9865 3.0047,-3.5698 l 3.0047,-2.8787 3.2453,3.1404 c 9.9623,9.6402 31.8429,11.1545 39.7383,2.7503 3.2097,-3.4167 3.7976,-10.9278 1.1807,-15.0875 -2.4875,-3.9542 -7.0681,-6.0874 -20.6737,-9.6278 -6.05,-1.5743 -12.9247,-3.7926 -15.2772,-4.9297 -13.0912,-6.3273 -14.789,-25.2881 -3.0579,-34.1504 3.9017,-2.9476 12.5975,-5.7121 17.9674,-5.7121 8.5775,0 21.0197,4.2042 26.7715,9.0461 l 2.4037,2.0235 -2.7281,2.8475 -2.7281,2.8476 -4.8924,-3.2924 c -7.3068,-4.917 -17.9203,-6.7217 -26.1266,-4.4424 -5.2879,1.4687 -9.8323,6.9955 -9.8323,11.9578 0,8.846 3.3052,11.4854 20.0275,15.9926 19.625,5.2897 25.7089,9.4407 27.8585,19.0078 2.2654,10.0827 -2.9242,19.6311 -13.0335,23.98 -5.7529,2.4748 -16.9785,3.4631 -23.3525,2.0559 z m 118.5453,-0.1164 c -20.4225,-4.0033 -34.9279,-25.4506 -31.3479,-46.3504 3.1462,-18.3675 16.0535,-31.5141 34.0406,-34.6716 10.6148,-1.8634 24.4058,1.7197 32.762,8.5119 l 3,2.4385 -2.9055,3.049 -2.9055,3.0491 -3.2533,-2.8564 c -7.3535,-6.4564 -23.2142,-8.4289 -33.1495,-4.1225 -6.2554,2.7114 -13.5036,10.1084 -16.4481,16.7858 -3.21,7.2797 -3.5831,18.3033 -0.8633,25.5111 2.9651,7.8581 8.595,14.6578 15.0356,18.1598 9.9344,5.4018 24.1518,4.5722 34.2396,-1.9979 l 3.75,-2.4424 v -10.3323 -10.3324 l -12.5,0.4816 -12.5,0.4815 v -4.635 -4.635 h 4.843 c 2.6636,0 10.3136,0.2942 17,0.6537 l 12.157,0.6537 v 15.2276 15.2276 l -3.25,2.4768 c -11.2083,8.5418 -25.1777,12.1238 -37.7047,9.6682 z m 170.2174,-0.3581 c -6.7013,-1.5242 -17.0661,-6.5698 -19.8775,-9.6763 -1.6478,-1.8209 -1.5978,-2.0418 1.0997,-4.8575 l 2.8261,-2.9498 3.5437,3.1114 c 5.715,5.0179 11.621,7.1367 21.2412,7.6204 7.1219,0.3581 9.3895,0.081 13.2233,-1.6147 7.6601,-3.3884 10.4161,-10.0942 7.2564,-17.6562 -1.8624,-4.4574 -6.6043,-6.8271 -21.3984,-10.6935 -6.4224,-1.6786 -13.2522,-3.8589 -15.1772,-4.8453 -12.4552,-6.382 -14.7726,-22.7259 -4.6103,-32.5154 9.255,-8.9154 29.1401,-9.5959 42.0047,-1.4374 5.7316,3.6348 6.5539,5.4609 3.7306,8.2842 -1.8074,1.8074 -2.4313,1.9504 -3.8889,0.8911 -4.7154,-3.4269 -12.9333,-6.4964 -18.5969,-6.9461 -8.3534,-0.6633 -13.7536,0.9629 -17.5479,5.2843 -5.2663,5.9981 -3.8104,15.8553 2.8698,19.4305 0.9934,0.5316 6.92,2.3571 13.1704,4.0566 22.775,6.1925 28.8685,11.1433 28.8685,23.4544 0,6.0843 -2.2001,11.5124 -6.1651,15.211 -6.4146,5.9834 -20.7007,8.5484 -32.5722,5.8483 z m -474.59603,-0.2162 C 868.3,1181.9667 868,1163.9667 868,1142.3333 V 1103 l 17.75,0.012 c 18.79111,0.013 24.19235,0.848 32.99407,5.1033 6.47738,3.1315 13.82455,10.7289 17.06776,17.649 2.42921,5.1833 2.68817,6.8436 2.68817,17.2358 0,10.4939 -0.23814,11.9844 -2.72198,17.0373 -1.4971,3.0455 -4.3339,7.4204 -6.30402,9.722 -4.5138,5.2734 -15.66721,10.8387 -24.474,12.212 -7.22958,1.1274 -35.28842,1.4069 -36.33333,0.362 z m 44.09513,-10.7373 c 7.07182,-3.2522 12.43076,-8.5797 15.56517,-15.4736 3.0337,-6.6724 2.94559,-19.6736 -0.18109,-26.7212 -2.81296,-6.3405 -9.09056,-12.5952 -15.64588,-15.5889 -4.35834,-1.9904 -6.95708,-2.3289 -20.25,-2.6376 L 877,1110.8205 v 32.1815 32.1814 l 14.75,-0.3538 c 13.74487,-0.3298 15.17671,-0.5501 21.0118,-3.2336 z m 199.8473,10.6797 c -0.335,-0.335 -0.6091,-18.309 -0.6091,-39.9424 V 1103 h 4.5115 4.5114 l -0.2614,39.6159 -0.2615,39.6159 -3.6409,0.3265 c -2.0025,0.1796 -3.915,0.052 -4.25,-0.2826 z m 177.9356,-7.0313 c -3.2753,-4.2594 -15.2003,-19.1303 -26.5,-33.0464 l -20.5447,-25.3021 -0.2637,32.5521 -0.2636,32.552 H 1238.9863 1235 v -39.5 -39.5 h 3.8592 c 3.7709,0 4.1654,0.3715 17.25,16.2435 7.3649,8.9339 18.7328,22.891 25.2619,31.0158 10.3338,12.8593 15.691,18.8862 13.1885,14.8372 -0.4121,-0.6669 -0.4201,-14.9114 -0.018,-31.6545 l 0.7318,-30.442 h 3.8631 3.8631 v 39.393 c 0,34.9988 -0.1764,39.4607 -1.5818,40 -3.5207,1.351 -5.1726,0.265 -10.8735,-7.1486 z M 959,1142.5 V 1103 h 29.5 29.5 v 4 4 h -24.86916 -24.86916 l -0.61983,3.75 c -0.34091,2.0625 -0.62479,8.1375 -0.63084,13.5 L 967,1138 h 22.5575 22.5575 l -0.3075,4.25 -0.3075,4.25 -22.25,0.2691 -22.25,0.2692 v 13.4637 13.4637 l 25.25,0.2671 25.25,0.2672 0.3104,3.75 0.3103,3.75 H 988.56037 959 Z m 125.5684,-87.6655 c -2.7124,-0.5179 -8.258,-2.4787 -12.3237,-4.3571 -13.9791,-6.4588 -23.6315,-19.4599 -26.9489,-36.2985 -5.1794,-26.29029 11.523,-52.94779 37.3975,-59.68723 7.2445,-1.88695 23.1553,-1.90747 30.1757,-0.0389 6.9103,1.83923 14.6468,5.65972 19.3404,9.55076 l 3.7094,3.07515 -6.2042,7.89264 -6.2042,7.89265 -3.0052,-2.28769 c -7.6205,-5.80108 -11.4802,-7.07059 -21.5052,-7.07351 -7.9114,-0.002 -10.2851,0.38394 -14.1949,2.30976 -6.044,2.97704 -12.55,9.47604 -15.204,15.18748 -3.0039,6.46469 -2.9702,20.59309 0.065,27.17569 3.0834,6.6873 9.5053,13.2215 15.5501,15.8219 4.4412,1.9105 6.4469,2.1602 14.227,1.7711 5.4144,-0.2709 10.7663,-1.1635 13.307,-2.2195 l 4.25,-1.7664 V 1023.3914 1015 h -11.0375 -11.0376 l 0.2876,-9.25 0.2875,-9.25 21.1084,-0.26948 21.1084,-0.26947 0.6329,5.26945 c 0.3481,2.8982 0.6368,12.7888 0.6416,21.979 l 0.01,16.7096 -2.75,2.5553 c -4.1931,3.8964 -17.2166,10.3059 -24.364,11.9907 -7.039,1.6593 -19.669,1.8301 -27.3176,0.3694 z m 212.1661,0.1336 c -14.2915,-3.5802 -23.1804,-14.4968 -23.1804,-28.4681 0,-11.0833 4.9234,-19.3574 15.4859,-26.0253 l 3.9273,-2.47917 -3.2296,-6.24776 c -2.8062,-5.4286 -3.2271,-7.23113 -3.2105,-13.74777 0.029,-11.45257 4.5559,-18.45056 14.9728,-23.14704 6.3818,-2.87726 17.841,-3.14744 24.5552,-0.57894 5.7492,2.19939 11.4057,7.94011 13.4019,13.60171 4.5067,12.78141 -1.6889,25.63892 -16.4571,34.15297 -1.1938,0.6883 -0.076,2.3046 5.4732,7.918 3.8352,3.8793 7.2679,7.0533 7.6281,7.0533 0.5349,0 3.9969,-8.7022 5.4626,-13.731 0.2642,-0.9065 1.5788,-0.7081 4.9857,0.7523 2.5448,1.0908 6.3872,2.2648 8.5387,2.6088 2.1514,0.344 3.9117,0.7142 3.9117,0.8226 0,1.4192 -5.5142,15.7536 -7.083,18.4126 l -2.0955,3.5515 6.4371,6.2503 6.4371,6.2503 -2.829,2.7103 c -2.3569,2.2581 -3.9075,4.2997 -8.5534,11.2625 -0.1432,0.2146 -3.2566,-1.9229 -6.9186,-4.75 -3.6621,-2.8271 -7.0291,-5.1402 -7.4821,-5.1402 -0.4531,0 -2.4525,1.1053 -4.4432,2.4562 -8.9634,6.0827 -25.4532,9.0876 -35.7349,6.5119 z m 23.1931,-19.9311 4.2827,-2.185 -8.3027,-8.676 c -4.5665,-4.7718 -9.0666,-9.5163 -10.0002,-10.5433 -1.6419,-1.8061 -1.8476,-1.729 -6.2766,2.3535 -5.5067,5.0759 -6.64,9.0849 -4.0882,14.4623 3.5632,7.5089 14.5924,9.5843 24.385,4.5885 z m -0.4876,-49.97437 c 1.68,-1.75356 2.9274,-4.38281 3.2617,-6.87503 0.7275,-5.42453 -2.7406,-9.1876 -8.4677,-9.1876 -9.0046,0 -11.9911,9.35767 -5.6473,17.69489 2.189,2.87687 2.7148,3.09597 5.282,2.20105 1.568,-0.54662 4.0751,-2.27161 5.5713,-3.83331 z M 867,1004.0338 V 954 l 20.25,0.0309 c 11.1375,0.017 23.5524,0.45965 27.58866,0.98371 10.08728,1.30971 18.23438,5.16054 23.64134,11.17439 5.80609,6.45777 8.00341,13.00591 7.99009,23.81102 -0.0136,10.99678 -2.57489,17.06718 -10.10523,23.94948 -8.35788,7.6387 -13.81418,9.3101 -32.08874,9.8299 l -15.22387,0.4331 -0.27613,14.6437 -0.27612,14.6438 -10.75,0.2838 -10.75,0.2839 z m 50.0156,-0.8522 c 2.26529,-1.1823 4.31073,-3.46059 5.84618,-6.51184 3.18786,-6.33496 2.37887,-12.34419 -2.35828,-17.51726 L 917.15879,975.5 902.8294,975.17884 888.5,974.85767 888.80011,989.92884 889.10022,1005 h 12.21549 c 9.86488,0 12.88599,-0.3499 15.69989,-1.8184 z M 939,1053.4571 c 0,-0.7483 12.53636,-29.9579 21.25309,-49.5194 3.53843,-7.94074 9.96604,-22.43998 14.28358,-32.22055 l 7.85007,-17.78285 9.89855,0.28285 9.89851,0.28285 8.9814,20.5 c 13.528,30.8777 33.8348,78.0141 33.8348,78.5378 0,0.2542 -5.1313,0.4622 -11.403,0.4622 h -11.4029 l -4.4737,-10.5759 -4.4737,-10.5759 -21.32669,0.1126 c -11.72967,0.062 -21.53145,0.3173 -21.78172,0.5676 -0.25028,0.2503 -2.37299,4.8463 -4.71714,10.2133 l -4.26209,9.7583 -11.07953,0.2828 C 943.98579,1053.9383 939,1053.7917 939,1053.4571 Z M 998.82761,998.25 c -3.31893,-8.1125 -6.32539,-15.04851 -6.68102,-15.41335 -0.35562,-0.36484 -3.64235,6.27266 -7.30384,14.75 L 978.1855,1013 h 13.33827 13.33823 z m 155.41309,6 0.2593,-49.75 37.75,-0.26203 37.75,-0.26202 V 963.98797 974 h -27 -27 v 10 10 h 23.5 23.5 v 9.5 9.5 h -23.5 -23.5 v 10.5 10.5 h 27 27 v 10 10 h -38.0093 -38.0094 z m 259.4587,49.1161 C 1413.3148,1052.9814 1413,1030.4667 1413,1003.3333 V 954 l 21.25,0.0198 c 11.6875,0.0109 24.3218,0.46391 28.0761,1.00671 13.3066,1.92384 22.1256,8.28418 27.5278,19.85347 2.2347,4.78567 2.6191,6.95613 2.5896,14.62001 -0.029,7.50918 -0.4611,9.92538 -2.6089,14.58651 -6.4158,13.9233 -17.4666,19.3303 -42.0501,20.5745 l -12.7314,0.6444 -0.2766,14.0973 -0.2765,14.0973 -10.0506,0.2828 c -5.5278,0.1555 -10.3653,-0.032 -10.75,-0.4167 z m 48.9952,-50.0206 c 9.5226,-4.68676 10.2745,-19.92612 1.3054,-26.45676 -1.9949,-1.45254 -5.177,-1.94114 -15.75,-2.41837 L 1435,973.8723 v 16.21099 16.21101 l 11.9724,-0.5516 c 8.742,-0.4028 12.9842,-1.0496 15.7222,-2.3972 z M 1506,1004 v -50 h 10.5 10.5 v 50 50 h -10.5 -10.5 z m 34,49.412 c 0,-0.7316 5.8913,-9.265 23.1991,-33.6035 l 11.8698,-16.6916 -14.8839,-21.30844 c -8.1862,-11.71965 -15.6607,-22.51897 -16.6102,-23.99848 l -1.7262,-2.69001 12.1504,-0.30999 c 9.8236,-0.25062 12.4055,-0.0227 13.483,1.19002 0.733,0.825 5.3642,7.77994 10.2916,15.45543 4.9274,7.67548 9.403,14.10343 9.9457,14.28433 0.5427,0.1809 5.422,-6.54905 10.8429,-14.95543 5.4208,-8.40638 10.3245,-15.61494 10.897,-16.01902 1.232,-0.86962 22.941,-1.03177 23.795,-0.17773 0.5527,0.55263 -9.9439,16.52993 -25.4305,38.70901 l -6.8405,9.79661 6.8376,10.2034 c 3.7607,5.6119 11.4145,16.8441 17.0084,24.9605 5.5939,8.1164 10.1708,14.9789 10.1708,15.25 0,0.2711 -5.5133,0.4929 -12.2517,0.4929 h -12.2518 l -11.442,-17.0062 c -6.2931,-9.3535 -11.8223,-16.626 -12.287,-16.1613 -0.4647,0.4647 -5.665,8.005 -11.5562,16.7562 L 1564.5,1053.5 l -12.25,0.2808 c -6.7375,0.1544 -12.25,-0.012 -12.25,-0.3688 z m 105.7609,-22.65 c -0.1315,-12.7941 -0.2084,-27.087 -0.171,-31.762 0.037,-4.675 0.145,-16.7125 0.2391,-26.75 L 1646,954 h 37.5 37.5 v 10 10 h -27 -27 v 10 10 h 24 24 v 9.4822 9.4822 l -24.25,0.2678 -24.25,0.2678 -0.2848,10.2341 -0.2848,10.2341 27.7848,0.2659 27.7848,0.2659 v 9.5 9.5 l -37.75,0.262 -37.75,0.2621 z M 1737,1003.9662 v -50.03386 l 10.5495,0.28383 10.5495,0.28383 0.2005,39.74541 0.2005,39.74539 h 25.25 25.25 v 10 10 h -36 -36 z M 651.80715,1005.5018 652.11431,993 H 664.55715 677 v 12.5 12.5 H 664.25 651.5 Z M 595,980.125 c 0,-5.98125 0.28125,-12.28125 0.625,-14 L 596.25,963 H 609.625 623 v 14 14 H 609 595 Z M 537,947.5 V 925 H 559.5 582 V 947.5 970 H 559.5 537 Z m 105,-10.86188 v -21.36189 l 21,-0.10254 21,-0.10253 V 936.53558 958 H 663 642 Z M 722,920 v -12 h 12.5 12.5 v 12 12 H 734.5 722 Z m -120.99866,-32.25 10e-4,-14.25 13.99866,-0.1891 13.99866,-0.1891 0.0695,9.1891 c 0.0382,5.054 0.27316,11.5516 0.52211,14.4391 L 630.0439,902 H 615.52211 601 Z M 675,872.5 V 857 h 15 15 V 872.5 888 H 690 675 Z M 639,828 v -10 h 10 10 v 10 10 h -10 -10 z m 76.53459,8.20126 C 715.24057,835.90723 715,831.24167 715,825.83333 V 816 h 11 11 v 10.48372 10.48372 l -10.46541,-0.1158 c -5.75597,-0.0637 -10.70597,-0.35636 -11,-0.65038 z m -46.1016,-42.69779 0.067,-12.49654 12.25,-0.003 L 694,781 v 12.5 12.5 h -12.31701 -12.317 z"
       id="path15" />
  </g>
  <g
     inkscape:groupmode="layer"
     inkscape:label="Image copy"
     id="g24"
     style="display:inline;fill-opacity:1;fill:url(#radialGradient30)">
    <path
       style="display:inline;opacity:0.60767591;mix-blend-mode:color-burn;fill:url(#meshgradient38);fill-opacity:1;fill-rule:evenodd;stroke:none;stroke-opacity:1"
       d="m 553.9378,1273.9823 c -11.2862,-1.7663 -23.0992,-8.1013 -30.9123,-16.5774 -4.1355,-4.4866 -8.997,-13.4079 -9.0157,-16.5451 -0.024,-4.0078 -68.0295,-16.4957 -116.0098,-21.3029 -28.5662,-2.862 -41.3291,-3.6282 -70.75,-4.2473 L 298,1214.6942 V 1050.3436 885.993 h 9 9 l 0.25,115.75 c 0.1375,63.6625 0.25,129.475 0.25,146.25 v 30.5 l 12.5,0.7057 c 61.7721,3.4872 112.2928,14.2057 164.8243,34.9692 12.4689,4.9285 24.671,10.6679 24.0269,11.3015 -0.1932,0.19 -6.4262,-1.6666 -13.8512,-4.1258 -15.7721,-5.2236 -44.6917,-11.2266 -71.3656,-14.8136 -10.3761,-1.3954 -19.6011,-2.513 -20.5,-2.4837 -0.8989,0.029 7.0016,1.8328 17.5566,4.0076 22.3525,4.6056 28.4973,6.3578 89.809,25.6089 4.4,1.3816 10.925,4.1249 14.5,6.0963 3.575,1.9714 8.7767,4.8428 11.5593,6.381 2.7827,1.5381 7.8579,3.5135 11.2782,4.3898 8.77,2.2468 14.5529,0.8185 30.6623,-7.573 26.1494,-13.6214 72.7661,-28.3529 115.0002,-36.3416 15.9183,-3.011 12.0067,-3.3368 -7,-0.5831 -22.3084,3.2321 -51.779,9.5208 -70.0693,14.9519 -9.2957,2.7603 -17.2984,4.8863 -17.7839,4.7245 -2.1281,-0.7094 40.2907,-17.7036 60.3373,-24.1728 33.6731,-10.8668 84.5058,-19.5131 130.2659,-22.1573 l 11.75,-0.679 V 1032.3462 885.993 h 9 9 l 0.062,134.75 c 0.034,74.1125 0.1467,147.9904 0.25,164.1732 l 0.1878,29.4231 -8.5,0.263 c -4.675,0.1446 -18.175,0.5189 -30,0.8318 -56.9134,1.506 -117.9636,9.2852 -171.9245,21.9072 -5.3393,1.249 -5.4525,1.3513 -7.21,6.5219 -6.8463,20.1414 -32.8323,33.89 -56.9277,30.1191 z m 165.7914,-70.5935 c -0.3323,-0.3323 -1.1948,-0.3678 -1.9167,-0.079 -0.7977,0.3192 -0.5608,0.5562 0.6042,0.6042 1.0541,0.043 1.6448,-0.193 1.3125,-0.5253 z M 567.23,1148.743 c -0.031,-43.0375 0.16,-79.0375 0.4243,-80 0.4324,-1.5748 2.1003,-1.7499 16.6631,-1.749 l 16.1826,9e-4 v -17.7509 -17.751 l 20.75,-0.2703 20.75,-0.2703 v 18.0203 18.0203 h 17 17 v -16.9701 -16.9701 l 12.75,-0.2799 12.75,-0.2799 v -32 -32 l 16.75,-0.2741 16.75,-0.2742 v 17.0242 17.0241 h 15.4536 15.4536 l 0.063,70.25 0.063,70.25 -17.2077,3.3451 c -29.2526,5.6865 -62.0767,15.7867 -89.8249,27.6396 -33.7126,14.4007 -62.3949,30.8139 -84.1967,48.1809 -3.6831,2.9339 -6.8812,5.3344 -7.1069,5.3344 -0.2256,0 -0.4355,-35.2125 -0.4665,-78.25 z M 641,1104.5748 c 0,-10.13 0.2731,-19.13 0.607,-20 0.5414,-1.4109 -1.62,-1.5818 -20,-1.5818 H 601 v 20 20 h 20 20 z m 57,3.4182 v -12 h -12 -12 v 12 12 h 12 12 z m 35.8991,-40.6298 3.1492,-0.6299 -0.2742,-16.1201 -0.2741,-16.1202 -10,0.068 c -5.5,0.037 -12.8125,0.1498 -16.25,0.25 l -6.25,0.182 v 16.5 16.5 h 13.375 c 7.3562,0 14.7921,-0.2834 16.5241,-0.6298 z M 548,1219.3745 c -18.4878,-14.0619 -54.4538,-34.2734 -83.2037,-46.7573 C 439.1222,1161.469 407.9124,1151.7898 379,1146.0091 l -18.5,-3.6989 -0.046,-154.9086 c -0.025,-85.1997 0.1095,-162.0318 0.2997,-170.7381 l 0.3458,-15.8295 4.2003,0.6524 c 2.3101,0.3588 10.9503,1.9924 19.2003,3.6302 66.6001,13.2219 121.4868,37.5095 165.2931,73.1429 l 7.2931,5.9324 -0.2931,15.6506 -0.2931,15.6505 -14.4982,0.076 -14.4982,0.076 -0.2182,4.4238 c -0.1201,2.4331 0.047,16.6863 0.3709,31.6738 l 0.5893,27.25 H 542.6228 557 v 123.5004 c 0,67.925 -0.1125,123.4655 -0.25,123.4233 -0.1375,-0.042 -4.075,-2.986 -8.75,-6.5418 z M 509.8562,962.139 510.2125,923.2884 496.3562,915.69 c -16.9776,-9.3102 -23.2036,-12.1522 -39.8562,-18.1932 -12.111,-4.3935 -41.7226,-12.4692 -45.8091,-12.4932 -1.71,-0.01 -1.7926,1.5357 -1.5079,28.2394 0.1657,15.5375 0.444,33.241 0.6186,39.3411 l 0.3174,11.0911 10.5926,2.2226 c 27.2667,5.7213 63.7436,19.6999 82.2884,31.5342 3.025,1.9304 5.725,3.5205 6,3.5337 0.275,0.013 0.6603,-17.4589 0.8562,-38.8267 z m 24.5938,261.9491 c -2.2583,-2.1512 -30.1974,-15.4359 -43.95,-20.8977 -47.7438,-18.9614 -104.5296,-31.348 -158,-34.4643 l -4,-0.2331 v -163.5 -163.5 l 9.2468,-0.2874 9.2469,-0.2875 0.2531,155.2875 0.2532,155.2874 3.5,0.2792 c 1.925,0.1536 9.8,1.412 17.5,2.7964 49.3288,8.8691 92.034,24.5179 137,50.202 19.4531,11.1113 33.5463,20.1618 31.45,20.1966 -0.8525,0.014 -1.9775,-0.3814 -2.5,-0.8791 z m 63.05,-5.6384 c 50.9915,-33.1157 107.8991,-55.0871 167.49,-64.6661 L 779,1151.5315 V 996.2623 840.993 h 8.8624 8.8624 l 0.5633,18.75 c 0.3098,10.3125 0.6385,83.8223 0.7305,163.3549 l 0.1672,144.605 -8.8429,0.7011 c -63.6501,5.0465 -129.2832,22.4884 -185.2463,49.2289 -8.4719,4.0481 -15.6719,7.3491 -16,7.3356 -0.3281,-0.013 3.9034,-2.9469 9.4034,-6.5188 z m 457,-35.4327 c -7.1022,-1.568 -12.8818,-3.998 -18.25,-7.6732 -2.8875,-1.9769 -5.25,-3.9054 -5.25,-4.2855 0,-0.3801 1.3521,-1.9865 3.0047,-3.5698 l 3.0047,-2.8787 3.2453,3.1404 c 9.9623,9.6402 31.8429,11.1545 39.7383,2.7503 3.2097,-3.4167 3.7976,-10.9278 1.1807,-15.0875 -2.4875,-3.9542 -7.0681,-6.0874 -20.6737,-9.6278 -6.05,-1.5743 -12.9247,-3.7926 -15.2772,-4.9297 -13.0912,-6.3273 -14.789,-25.2881 -3.0579,-34.1504 3.9017,-2.9476 12.5975,-5.7121 17.9674,-5.7121 8.5775,0 21.0197,4.2042 26.7715,9.0461 l 2.4037,2.0235 -2.7281,2.8475 -2.7281,2.8476 -4.8924,-3.2924 c -7.3068,-4.917 -17.9203,-6.7217 -26.1266,-4.4424 -5.2879,1.4687 -9.8323,6.9955 -9.8323,11.9578 0,8.846 3.3052,11.4854 20.0275,15.9926 19.625,5.2897 25.7089,9.4407 27.8585,19.0078 2.2654,10.0827 -2.9242,19.6311 -13.0335,23.98 -5.7529,2.4748 -16.9785,3.4631 -23.3525,2.0559 z m 118.5453,-0.1164 c -20.4225,-4.0033 -34.9279,-25.4506 -31.3479,-46.3504 3.1462,-18.3675 16.0535,-31.5141 34.0406,-34.6716 10.6148,-1.8634 24.4058,1.7197 32.762,8.5119 l 3,2.4385 -2.9055,3.049 -2.9055,3.0491 -3.2533,-2.8564 c -7.3535,-6.4564 -23.2142,-8.4289 -33.1495,-4.1225 -6.2554,2.7114 -13.5036,10.1084 -16.4481,16.7858 -3.21,7.2797 -3.5831,18.3033 -0.8633,25.5111 2.9651,7.8581 8.595,14.6578 15.0356,18.1598 9.9344,5.4018 24.1518,4.5722 34.2396,-1.9979 l 3.75,-2.4424 v -10.3323 -10.3324 l -12.5,0.4816 -12.5,0.4815 v -4.635 -4.635 h 4.843 c 2.6636,0 10.3136,0.2942 17,0.6537 l 12.157,0.6537 v 15.2276 15.2276 l -3.25,2.4768 c -11.2083,8.5418 -25.1777,12.1238 -37.7047,9.6682 z m 170.2174,-0.3581 c -6.7013,-1.5242 -17.0661,-6.5698 -19.8775,-9.6763 -1.6478,-1.8209 -1.5978,-2.0418 1.0997,-4.8575 l 2.8261,-2.9498 3.5437,3.1114 c 5.715,5.0179 11.621,7.1367 21.2412,7.6204 7.1219,0.3581 9.3895,0.081 13.2233,-1.6147 7.6601,-3.3884 10.4161,-10.0942 7.2564,-17.6562 -1.8624,-4.4574 -6.6043,-6.8271 -21.3984,-10.6935 -6.4224,-1.6786 -13.2522,-3.8589 -15.1772,-4.8453 -12.4552,-6.382 -14.7726,-22.7259 -4.6103,-32.5154 9.255,-8.9154 29.1401,-9.5959 42.0047,-1.4374 5.7316,3.6348 6.5539,5.4609 3.7306,8.2842 -1.8074,1.8074 -2.4313,1.9504 -3.8889,0.8911 -4.7154,-3.4269 -12.9333,-6.4964 -18.5969,-6.9461 -8.3534,-0.6633 -13.7536,0.9629 -17.5479,5.2843 -5.2663,5.9981 -3.8104,15.8553 2.8698,19.4305 0.9934,0.5316 6.92,2.3571 13.1704,4.0566 22.775,6.1925 28.8685,11.1433 28.8685,23.4544 0,6.0843 -2.2001,11.5124 -6.1651,15.211 -6.4146,5.9834 -20.7007,8.5484 -32.5722,5.8483 z m -474.596,-0.2162 C 868.3,1181.9597 868,1163.9597 868,1142.3263 v -39.3333 l 17.75,0.012 c 18.7911,0.013 24.1923,0.848 32.9941,5.1033 6.4773,3.1315 13.8245,10.7289 17.0677,17.649 2.4292,5.1833 2.6882,6.8436 2.6882,17.2358 0,10.4939 -0.2381,11.9844 -2.722,17.0373 -1.4971,3.0455 -4.3339,7.4204 -6.304,9.722 -4.5138,5.2734 -15.6672,10.8387 -24.474,12.212 -7.2296,1.1274 -35.2884,1.4069 -36.3333,0.362 z m 44.0951,-10.7373 c 7.0718,-3.2522 12.4308,-8.5797 15.5652,-15.4736 3.0337,-6.6724 2.9456,-19.6736 -0.1811,-26.7212 -2.813,-6.3405 -9.0906,-12.5952 -15.6459,-15.5889 -4.3583,-1.9904 -6.9571,-2.3289 -20.25,-2.6376 L 877,1110.8135 v 32.1815 32.1814 l 14.75,-0.3538 c 13.7449,-0.3298 15.1767,-0.5501 21.0118,-3.2336 z m 199.8473,10.6797 c -0.335,-0.335 -0.6091,-18.309 -0.6091,-39.9424 v -39.3333 h 4.5115 4.5114 l -0.2614,39.6159 -0.2615,39.6159 -3.6409,0.3265 c -2.0025,0.1796 -3.915,0.052 -4.25,-0.2826 z m 177.9356,-7.0313 c -3.2753,-4.2594 -15.2003,-19.1303 -26.5,-33.0464 l -20.5447,-25.3021 -0.2637,32.5521 -0.2636,32.552 H 1238.9863 1235 v -39.5 -39.5 h 3.8592 c 3.7709,0 4.1654,0.3715 17.25,16.2435 7.3649,8.9339 18.7328,22.891 25.2619,31.0158 10.3338,12.8593 15.691,18.8862 13.1885,14.8372 -0.4121,-0.6669 -0.4201,-14.9114 -0.018,-31.6545 l 0.7318,-30.442 h 3.8631 3.8631 v 39.393 c 0,34.9988 -0.1764,39.4607 -1.5818,40 -3.5207,1.351 -5.1726,0.265 -10.8735,-7.1486 z M 959,1142.493 v -39.5 h 29.5 29.5 v 4 4 h -24.8692 -24.8691 l -0.6199,3.75 c -0.3409,2.0625 -0.6247,8.1375 -0.6308,13.5 l -0.011,9.75 h 22.5575 22.5575 l -0.3075,4.25 -0.3075,4.25 -22.25,0.2691 -22.25,0.2692 v 13.4637 13.4637 l 25.25,0.2671 25.25,0.2672 0.3104,3.75 0.3103,3.75 H 988.5604 959 Z m 125.5684,-87.6655 c -2.7124,-0.5179 -8.258,-2.4787 -12.3237,-4.3571 -13.9791,-6.4588 -23.6315,-19.4599 -26.9489,-36.2985 -5.1794,-26.2903 11.523,-52.9478 37.3975,-59.6872 7.2445,-1.8869 23.1553,-1.9075 30.1757,-0.039 6.9103,1.8392 14.6468,5.6597 19.3404,9.5508 l 3.7094,3.0751 -6.2042,7.8927 -6.2042,7.8926 -3.0052,-2.2877 c -7.6205,-5.8011 -11.4802,-7.0706 -21.5052,-7.0735 -7.9114,0 -10.2851,0.3839 -14.1949,2.3098 -6.044,2.977 -12.55,9.476 -15.204,15.1874 -3.0039,6.4647 -2.9702,20.5931 0.065,27.1757 3.0834,6.6873 9.5053,13.2215 15.5501,15.8219 4.4412,1.9105 6.4469,2.1602 14.227,1.7711 5.4144,-0.2709 10.7663,-1.1635 13.307,-2.2195 l 4.25,-1.7664 v -8.3914 -8.3914 h -11.0375 -11.0376 l 0.2876,-9.25 0.2875,-9.25 21.1084,-0.2694 21.1084,-0.2695 0.6329,5.2694 c 0.3481,2.8982 0.6368,12.7888 0.6416,21.979 l 0.01,16.7096 -2.75,2.5553 c -4.1931,3.8964 -17.2166,10.3059 -24.364,11.9907 -7.039,1.6593 -19.669,1.8301 -27.3176,0.3694 z m 212.1661,0.1336 c -14.2915,-3.5802 -23.1804,-14.4968 -23.1804,-28.4681 0,-11.0833 4.9234,-19.3574 15.4859,-26.0253 l 3.9273,-2.4791 -3.2296,-6.2478 c -2.8062,-5.4286 -3.2271,-7.2311 -3.2105,-13.7478 0.029,-11.4525 4.5559,-18.4505 14.9728,-23.147 6.3818,-2.8773 17.841,-3.1474 24.5552,-0.5789 5.7492,2.1993 11.4057,7.9401 13.4019,13.6017 4.5067,12.7814 -1.6889,25.6389 -16.4571,34.1529 -1.1938,0.6883 -0.076,2.3046 5.4732,7.918 3.8352,3.8793 7.2679,7.0533 7.6281,7.0533 0.5349,0 3.9969,-8.7022 5.4626,-13.731 0.2642,-0.9065 1.5788,-0.7081 4.9857,0.7523 2.5448,1.0908 6.3872,2.2648 8.5387,2.6088 2.1514,0.344 3.9117,0.7142 3.9117,0.8226 0,1.4192 -5.5142,15.7536 -7.083,18.4126 l -2.0955,3.5515 6.4371,6.2503 6.4371,6.2503 -2.829,2.7103 c -2.3569,2.2581 -3.9075,4.2997 -8.5534,11.2625 -0.1432,0.2146 -3.2566,-1.9229 -6.9186,-4.75 -3.6621,-2.8271 -7.0291,-5.1402 -7.4821,-5.1402 -0.4531,0 -2.4525,1.1053 -4.4432,2.4562 -8.9634,6.0827 -25.4532,9.0876 -35.7349,6.5119 z m 23.1931,-19.9311 4.2827,-2.185 -8.3027,-8.676 c -4.5665,-4.7718 -9.0666,-9.5163 -10.0002,-10.5433 -1.6419,-1.8061 -1.8476,-1.729 -6.2766,2.3535 -5.5067,5.0759 -6.64,9.0849 -4.0882,14.4623 3.5632,7.5089 14.5924,9.5843 24.385,4.5885 z m -0.4876,-49.9743 c 1.68,-1.7536 2.9274,-4.3828 3.2617,-6.8751 0.7275,-5.4245 -2.7406,-9.1876 -8.4677,-9.1876 -9.0046,0 -11.9911,9.3577 -5.6473,17.6949 2.189,2.8769 2.7148,3.096 5.282,2.2011 1.568,-0.5466 4.0751,-2.2716 5.5713,-3.8333 z M 867,1004.0268 V 953.993 l 20.25,0.031 c 11.1375,0.017 23.5524,0.4597 27.5887,0.9837 10.0872,1.3098 18.2343,5.1606 23.6413,11.1744 5.8061,6.4578 8.0034,13.0059 7.9901,23.8111 -0.014,10.9967 -2.5749,17.0671 -10.1052,23.9494 -8.3579,7.6387 -13.8142,9.3101 -32.0888,9.8299 l -15.2239,0.4331 -0.2761,14.6437 -0.2761,14.6438 -10.75,0.2838 -10.75,0.2839 z m 50.0156,-0.8522 c 2.2653,-1.1823 4.3107,-3.4606 5.8462,-6.5118 3.1878,-6.335 2.3788,-12.3442 -2.3583,-17.5173 l -3.3447,-3.6525 -14.3294,-0.3211 -14.3294,-0.3212 0.3001,15.0712 0.3001,15.0711 h 12.2155 c 9.8649,0 12.886,-0.3499 15.6999,-1.8184 z M 939,1053.4501 c 0,-0.7483 12.5364,-29.9579 21.2531,-49.5194 3.5384,-7.9407 9.966,-22.4399 14.2836,-32.2205 l 7.85,-17.7829 9.8986,0.2829 9.8985,0.2828 8.9814,20.5 c 13.528,30.8777 33.8348,78.0141 33.8348,78.5378 0,0.2542 -5.1313,0.4622 -11.403,0.4622 h -11.4029 l -4.4737,-10.5759 -4.4737,-10.5759 -21.3267,0.1126 c -11.7297,0.062 -21.5314,0.3173 -21.7817,0.5676 -0.2503,0.2503 -2.373,4.8463 -4.7171,10.2133 l -4.2621,9.7583 -11.0796,0.2828 c -6.0937,0.1555 -11.0795,0.01 -11.0795,-0.3257 z m 59.8276,-55.2071 c -3.3189,-8.1125 -6.3254,-15.0485 -6.681,-15.4133 -0.3556,-0.3649 -3.6424,6.2726 -7.3039,14.75 l -6.6572,15.4133 h 13.3383 13.3382 z m 155.4131,6 0.2593,-49.75 37.75,-0.262 37.75,-0.262 v 10.012 10.012 h -27 -27 v 10 10 h 23.5 23.5 v 9.5 9.5 h -23.5 -23.5 v 10.5 10.5 h 27 27 v 10 10 h -38.0093 -38.0094 z m 259.4587,49.1161 C 1413.3148,1052.9744 1413,1030.4597 1413,1003.3263 V 953.993 l 21.25,0.02 c 11.6875,0.011 24.3218,0.4639 28.0761,1.0067 13.3066,1.9239 22.1256,8.2842 27.5278,19.8535 2.2347,4.7857 2.6191,6.9561 2.5896,14.62 -0.029,7.5092 -0.4611,9.9254 -2.6089,14.5865 -6.4158,13.9233 -17.4666,19.3303 -42.0501,20.5745 l -12.7314,0.6444 -0.2766,14.0973 -0.2765,14.0973 -10.0506,0.2828 c -5.5278,0.1555 -10.3653,-0.032 -10.75,-0.4167 z m 48.9952,-50.0206 c 9.5226,-4.6867 10.2745,-19.9261 1.3054,-26.4567 -1.9949,-1.4526 -5.177,-1.9412 -15.75,-2.4184 L 1435,973.8653 v 16.211 16.211 l 11.9724,-0.5516 c 8.742,-0.4028 12.9842,-1.0496 15.7222,-2.3972 z M 1506,1003.993 v -50 h 10.5 10.5 v 50 50 h -10.5 -10.5 z m 34,49.412 c 0,-0.7316 5.8913,-9.265 23.1991,-33.6035 l 11.8698,-16.6916 -14.8839,-21.3084 c -8.1862,-11.7197 -15.6607,-22.519 -16.6102,-23.9985 l -1.7262,-2.69 12.1504,-0.31 c 9.8236,-0.2506 12.4055,-0.023 13.483,1.19 0.733,0.825 5.3642,7.78 10.2916,15.4555 4.9274,7.6754 9.403,14.1034 9.9457,14.2843 0.5427,0.1809 5.422,-6.5491 10.8429,-14.9554 5.4208,-8.4064 10.3245,-15.615 10.897,-16.0191 1.232,-0.8696 22.941,-1.0317 23.795,-0.1777 0.5527,0.5526 -9.9439,16.5299 -25.4305,38.709 l -6.8405,9.7966 6.8376,10.2034 c 3.7607,5.6119 11.4145,16.8441 17.0084,24.9605 5.5939,8.1164 10.1708,14.9789 10.1708,15.25 0,0.2711 -5.5133,0.4929 -12.2517,0.4929 h -12.2518 l -11.442,-17.0062 c -6.2931,-9.3535 -11.8223,-16.626 -12.287,-16.1613 -0.4647,0.4647 -5.665,8.005 -11.5562,16.7562 l -10.7113,15.9113 -12.25,0.2808 c -6.7375,0.1544 -12.25,-0.012 -12.25,-0.3688 z m 105.7609,-22.65 c -0.1315,-12.7941 -0.2084,-27.087 -0.171,-31.762 0.037,-4.675 0.145,-16.7125 0.2391,-26.75 l 0.171,-18.25 h 37.5 37.5 v 10 10 h -27 -27 v 10 10 h 24 24 v 9.4822 9.4822 l -24.25,0.2678 -24.25,0.2678 -0.2848,10.2341 -0.2848,10.2341 27.7848,0.2659 27.7848,0.2659 v 9.5 9.5 l -37.75,0.262 -37.75,0.2621 z M 1737,1003.9592 v -50.0338 l 10.5495,0.2838 10.5495,0.2838 0.2005,39.7454 0.2005,39.7454 h 25.25 25.25 v 10 10 h -36 -36 z m -1085.1929,1.5356 0.3072,-12.5018 H 664.5571 677 v 12.5 12.5 H 664.25 651.5 Z M 595,980.118 c 0,-5.9812 0.2812,-12.2812 0.625,-14 l 0.625,-3.125 H 609.625 623 v 14 14 h -14 -14 z m -58,-32.625 v -22.5 h 22.5 22.5 v 22.5 22.5 H 559.5 537 Z m 105,-10.8618 v -21.3619 l 21,-0.1026 21,-0.1025 v 21.4644 21.4644 h -21 -21 z m 80,-16.6382 v -12 h 12.5 12.5 v 12 12 H 734.5 722 Z m -120.9987,-32.25 v -14.25 L 615,873.3039 l 13.9987,-0.1891 0.069,9.1891 c 0.038,5.054 0.2731,11.5516 0.5221,14.4391 l 0.4526,5.25 H 615.5221 601 Z M 675,872.493 v -15.5 h 15 15 v 15.5 15.5 h -15 -15 z m -36,-44.5 v -10 h 10 10 v 10 10 h -10 -10 z m 76.5346,8.2013 C 715.2406,835.9003 715,831.2347 715,825.8264 v -9.8334 h 11 11 v 10.4838 10.4837 l -10.4654,-0.1158 c -5.756,-0.064 -10.706,-0.3564 -11,-0.6504 z M 669.433,793.4965 669.5,781 H 681.75 694 v 12.5 12.5 h -12.317 -12.317 z"
       id="path24" />
  </g>
  <script
     id="mesh_polyfill"
     type="text/javascript">&#10;!function(){const t=&quot;http://www.w3.org/2000/svg&quot;,e=&quot;http://www.w3.org/1999/xlink&quot;,s=&quot;http://www.w3.org/1999/xhtml&quot;,r=2;if(document.createElementNS(t,&quot;meshgradient&quot;).x)return;const n=(t,e,s,r)=&gt;{let n=new x(.5*(e.x+s.x),.5*(e.y+s.y)),o=new x(.5*(t.x+e.x),.5*(t.y+e.y)),i=new x(.5*(s.x+r.x),.5*(s.y+r.y)),a=new x(.5*(n.x+o.x),.5*(n.y+o.y)),h=new x(.5*(n.x+i.x),.5*(n.y+i.y)),l=new x(.5*(a.x+h.x),.5*(a.y+h.y));return[[t,o,a,l],[l,h,i,r]]},o=t=&gt;{let e=t[0].distSquared(t[1]),s=t[2].distSquared(t[3]),r=.25*t[0].distSquared(t[2]),n=.25*t[1].distSquared(t[3]),o=e&gt;s?e:s,i=r&gt;n?r:n;return 18*(o&gt;i?o:i)},i=(t,e)=&gt;Math.sqrt(t.distSquared(e)),a=(t,e)=&gt;t.scale(2/3).add(e.scale(1/3)),h=t=&gt;{let e,s,r,n,o,i,a,h=new g;return t.match(/(\w+\(\s*[^)]+\))+/g).forEach(t=&gt;{let l=t.match(/[\w.-]+/g),d=l.shift();switch(d){case&quot;translate&quot;:2===l.length?e=new g(1,0,0,1,l[0],l[1]):(console.error(&quot;mesh.js: translate does not have 2 arguments!&quot;),e=new g(1,0,0,1,0,0)),h=h.append(e);break;case&quot;scale&quot;:1===l.length?s=new g(l[0],0,0,l[0],0,0):2===l.length?s=new g(l[0],0,0,l[1],0,0):(console.error(&quot;mesh.js: scale does not have 1 or 2 arguments!&quot;),s=new g(1,0,0,1,0,0)),h=h.append(s);break;case&quot;rotate&quot;:if(3===l.length&amp;&amp;(e=new g(1,0,0,1,l[1],l[2]),h=h.append(e)),l[0]){r=l[0]*Math.PI/180;let t=Math.cos(r),e=Math.sin(r);Math.abs(t)&lt;1e-16&amp;&amp;(t=0),Math.abs(e)&lt;1e-16&amp;&amp;(e=0),a=new g(t,e,-e,t,0,0),h=h.append(a)}else console.error(&quot;math.js: No argument to rotate transform!&quot;);3===l.length&amp;&amp;(e=new g(1,0,0,1,-l[1],-l[2]),h=h.append(e));break;case&quot;skewX&quot;:l[0]?(r=l[0]*Math.PI/180,n=Math.tan(r),o=new g(1,0,n,1,0,0),h=h.append(o)):console.error(&quot;math.js: No argument to skewX transform!&quot;);break;case&quot;skewY&quot;:l[0]?(r=l[0]*Math.PI/180,n=Math.tan(r),i=new g(1,n,0,1,0,0),h=h.append(i)):console.error(&quot;math.js: No argument to skewY transform!&quot;);break;case&quot;matrix&quot;:6===l.length?h=h.append(new g(...l)):console.error(&quot;math.js: Incorrect number of arguments for matrix!&quot;);break;default:console.error(&quot;mesh.js: Unhandled transform type: &quot;+d)}}),h},l=t=&gt;{let e=[],s=t.split(/[ ,]+/);for(let t=0,r=s.length-1;t&lt;r;t+=2)e.push(new x(parseFloat(s[t]),parseFloat(s[t+1])));return e},d=(t,e)=&gt;{for(let s in e)t.setAttribute(s,e[s])},c=(t,e,s,r,n)=&gt;{let o,i,a=[0,0,0,0];for(let h=0;h&lt;3;++h)e[h]&lt;t[h]&amp;&amp;e[h]&lt;s[h]||t[h]&lt;e[h]&amp;&amp;s[h]&lt;e[h]?a[h]=0:(a[h]=.5*((e[h]-t[h])/r+(s[h]-e[h])/n),o=Math.abs(3*(e[h]-t[h])/r),i=Math.abs(3*(s[h]-e[h])/n),a[h]&gt;o?a[h]=o:a[h]&gt;i&amp;&amp;(a[h]=i));return a},u=[[1,0,0,0,0,0,0,0,0,0,0,0,0,0,0,0],[0,0,0,0,1,0,0,0,0,0,0,0,0,0,0,0],[-3,3,0,0,-2,-1,0,0,0,0,0,0,0,0,0,0],[2,-2,0,0,1,1,0,0,0,0,0,0,0,0,0,0],[0,0,0,0,0,0,0,0,1,0,0,0,0,0,0,0],[0,0,0,0,0,0,0,0,0,0,0,0,1,0,0,0],[0,0,0,0,0,0,0,0,-3,3,0,0,-2,-1,0,0],[0,0,0,0,0,0,0,0,2,-2,0,0,1,1,0,0],[-3,0,3,0,0,0,0,0,-2,0,-1,0,0,0,0,0],[0,0,0,0,-3,0,3,0,0,0,0,0,-2,0,-1,0],[9,-9,-9,9,6,3,-6,-3,6,-6,3,-3,4,2,2,1],[-6,6,6,-6,-3,-3,3,3,-4,4,-2,2,-2,-2,-1,-1],[2,0,-2,0,0,0,0,0,1,0,1,0,0,0,0,0],[0,0,0,0,2,0,-2,0,0,0,0,0,1,0,1,0],[-6,6,6,-6,-4,-2,4,2,-3,3,-3,3,-2,-1,-2,-1],[4,-4,-4,4,2,2,-2,-2,2,-2,2,-2,1,1,1,1]],f=t=&gt;{let e=[];for(let s=0;s&lt;16;++s){e[s]=0;for(let r=0;r&lt;16;++r)e[s]+=u[s][r]*t[r]}return e},p=(t,e,s)=&gt;{const r=e*e,n=s*s,o=e*e*e,i=s*s*s;return t[0]+t[1]*e+t[2]*r+t[3]*o+t[4]*s+t[5]*s*e+t[6]*s*r+t[7]*s*o+t[8]*n+t[9]*n*e+t[10]*n*r+t[11]*n*o+t[12]*i+t[13]*i*e+t[14]*i*r+t[15]*i*o},y=t=&gt;{let e=[],s=[],r=[];for(let s=0;s&lt;4;++s)e[s]=[],e[s][0]=n(t[0][s],t[1][s],t[2][s],t[3][s]),e[s][1]=[],e[s][1].push(...n(...e[s][0][0])),e[s][1].push(...n(...e[s][0][1])),e[s][2]=[],e[s][2].push(...n(...e[s][1][0])),e[s][2].push(...n(...e[s][1][1])),e[s][2].push(...n(...e[s][1][2])),e[s][2].push(...n(...e[s][1][3]));for(let t=0;t&lt;8;++t){s[t]=[];for(let r=0;r&lt;4;++r)s[t][r]=[],s[t][r][0]=n(e[0][2][t][r],e[1][2][t][r],e[2][2][t][r],e[3][2][t][r]),s[t][r][1]=[],s[t][r][1].push(...n(...s[t][r][0][0])),s[t][r][1].push(...n(...s[t][r][0][1])),s[t][r][2]=[],s[t][r][2].push(...n(...s[t][r][1][0])),s[t][r][2].push(...n(...s[t][r][1][1])),s[t][r][2].push(...n(...s[t][r][1][2])),s[t][r][2].push(...n(...s[t][r][1][3]))}for(let t=0;t&lt;8;++t){r[t]=[];for(let e=0;e&lt;8;++e)r[t][e]=[],r[t][e][0]=s[t][0][2][e],r[t][e][1]=s[t][1][2][e],r[t][e][2]=s[t][2][2][e],r[t][e][3]=s[t][3][2][e]}return r};class x{constructor(t,e){this.x=t||0,this.y=e||0}toString(){return`(x=${this.x}, y=${this.y})`}clone(){return new x(this.x,this.y)}add(t){return new x(this.x+t.x,this.y+t.y)}scale(t){return void 0===t.x?new x(this.x*t,this.y*t):new x(this.x*t.x,this.y*t.y)}distSquared(t){let e=this.x-t.x,s=this.y-t.y;return e*e+s*s}transform(t){let e=this.x*t.a+this.y*t.c+t.e,s=this.x*t.b+this.y*t.d+t.f;return new x(e,s)}}class g{constructor(t,e,s,r,n,o){void 0===t?(this.a=1,this.b=0,this.c=0,this.d=1,this.e=0,this.f=0):(this.a=t,this.b=e,this.c=s,this.d=r,this.e=n,this.f=o)}toString(){return`affine: ${this.a} ${this.c} ${this.e} \n       ${this.b} ${this.d} ${this.f}`}append(t){t instanceof g||console.error(&quot;mesh.js: argument to Affine.append is not affine!&quot;);let e=this.a*t.a+this.c*t.b,s=this.b*t.a+this.d*t.b,r=this.a*t.c+this.c*t.d,n=this.b*t.c+this.d*t.d,o=this.a*t.e+this.c*t.f+this.e,i=this.b*t.e+this.d*t.f+this.f;return new g(e,s,r,n,o,i)}}class w{constructor(t,e){this.nodes=t,this.colors=e}paintCurve(t,e){if(o(this.nodes)&gt;r){const s=n(...this.nodes);let r=[[],[]],o=[[],[]];for(let t=0;t&lt;4;++t)r[0][t]=this.colors[0][t],r[1][t]=(this.colors[0][t]+this.colors[1][t])/2,o[0][t]=r[1][t],o[1][t]=this.colors[1][t];let i=new w(s[0],r),a=new w(s[1],o);i.paintCurve(t,e),a.paintCurve(t,e)}else{let s=Math.round(this.nodes[0].x);if(s&gt;=0&amp;&amp;s&lt;e){let r=4*(~~this.nodes[0].y*e+s);t[r]=Math.round(this.colors[0][0]),t[r+1]=Math.round(this.colors[0][1]),t[r+2]=Math.round(this.colors[0][2]),t[r+3]=Math.round(this.colors[0][3])}}}}class m{constructor(t,e){this.nodes=t,this.colors=e}split(){let t=[[],[],[],[]],e=[[],[],[],[]],s=[[[],[]],[[],[]]],r=[[[],[]],[[],[]]];for(let s=0;s&lt;4;++s){const r=n(this.nodes[0][s],this.nodes[1][s],this.nodes[2][s],this.nodes[3][s]);t[0][s]=r[0][0],t[1][s]=r[0][1],t[2][s]=r[0][2],t[3][s]=r[0][3],e[0][s]=r[1][0],e[1][s]=r[1][1],e[2][s]=r[1][2],e[3][s]=r[1][3]}for(let t=0;t&lt;4;++t)s[0][0][t]=this.colors[0][0][t],s[0][1][t]=this.colors[0][1][t],s[1][0][t]=(this.colors[0][0][t]+this.colors[1][0][t])/2,s[1][1][t]=(this.colors[0][1][t]+this.colors[1][1][t])/2,r[0][0][t]=s[1][0][t],r[0][1][t]=s[1][1][t],r[1][0][t]=this.colors[1][0][t],r[1][1][t]=this.colors[1][1][t];return[new m(t,s),new m(e,r)]}paint(t,e){let s,n=!1;for(let t=0;t&lt;4;++t)if((s=o([this.nodes[0][t],this.nodes[1][t],this.nodes[2][t],this.nodes[3][t]]))&gt;r){n=!0;break}if(n){let s=this.split();s[0].paint(t,e),s[1].paint(t,e)}else{new w([...this.nodes[0]],[...this.colors[0]]).paintCurve(t,e)}}}class b{constructor(t){this.readMesh(t),this.type=t.getAttribute(&quot;type&quot;)||&quot;bilinear&quot;}readMesh(t){let e=[[]],s=[[]],r=Number(t.getAttribute(&quot;x&quot;)),n=Number(t.getAttribute(&quot;y&quot;));e[0][0]=new x(r,n);let o=t.children;for(let t=0,r=o.length;t&lt;r;++t){e[3*t+1]=[],e[3*t+2]=[],e[3*t+3]=[],s[t+1]=[];let r=o[t].children;for(let n=0,o=r.length;n&lt;o;++n){let o=r[n].children;for(let r=0,i=o.length;r&lt;i;++r){let i=r;0!==t&amp;&amp;++i;let h,d=o[r].getAttribute(&quot;path&quot;),c=&quot;l&quot;;null!=d&amp;&amp;(c=(h=d.match(/\s*([lLcC])\s*(.*)/))[1]);let u=l(h[2]);switch(c){case&quot;l&quot;:0===i?(e[3*t][3*n+3]=u[0].add(e[3*t][3*n]),e[3*t][3*n+1]=a(e[3*t][3*n],e[3*t][3*n+3]),e[3*t][3*n+2]=a(e[3*t][3*n+3],e[3*t][3*n])):1===i?(e[3*t+3][3*n+3]=u[0].add(e[3*t][3*n+3]),e[3*t+1][3*n+3]=a(e[3*t][3*n+3],e[3*t+3][3*n+3]),e[3*t+2][3*n+3]=a(e[3*t+3][3*n+3],e[3*t][3*n+3])):2===i?(0===n&amp;&amp;(e[3*t+3][3*n+0]=u[0].add(e[3*t+3][3*n+3])),e[3*t+3][3*n+1]=a(e[3*t+3][3*n],e[3*t+3][3*n+3]),e[3*t+3][3*n+2]=a(e[3*t+3][3*n+3],e[3*t+3][3*n])):(e[3*t+1][3*n]=a(e[3*t][3*n],e[3*t+3][3*n]),e[3*t+2][3*n]=a(e[3*t+3][3*n],e[3*t][3*n]));break;case&quot;L&quot;:0===i?(e[3*t][3*n+3]=u[0],e[3*t][3*n+1]=a(e[3*t][3*n],e[3*t][3*n+3]),e[3*t][3*n+2]=a(e[3*t][3*n+3],e[3*t][3*n])):1===i?(e[3*t+3][3*n+3]=u[0],e[3*t+1][3*n+3]=a(e[3*t][3*n+3],e[3*t+3][3*n+3]),e[3*t+2][3*n+3]=a(e[3*t+3][3*n+3],e[3*t][3*n+3])):2===i?(0===n&amp;&amp;(e[3*t+3][3*n+0]=u[0]),e[3*t+3][3*n+1]=a(e[3*t+3][3*n],e[3*t+3][3*n+3]),e[3*t+3][3*n+2]=a(e[3*t+3][3*n+3],e[3*t+3][3*n])):(e[3*t+1][3*n]=a(e[3*t][3*n],e[3*t+3][3*n]),e[3*t+2][3*n]=a(e[3*t+3][3*n],e[3*t][3*n]));break;case&quot;c&quot;:0===i?(e[3*t][3*n+1]=u[0].add(e[3*t][3*n]),e[3*t][3*n+2]=u[1].add(e[3*t][3*n]),e[3*t][3*n+3]=u[2].add(e[3*t][3*n])):1===i?(e[3*t+1][3*n+3]=u[0].add(e[3*t][3*n+3]),e[3*t+2][3*n+3]=u[1].add(e[3*t][3*n+3]),e[3*t+3][3*n+3]=u[2].add(e[3*t][3*n+3])):2===i?(e[3*t+3][3*n+2]=u[0].add(e[3*t+3][3*n+3]),e[3*t+3][3*n+1]=u[1].add(e[3*t+3][3*n+3]),0===n&amp;&amp;(e[3*t+3][3*n+0]=u[2].add(e[3*t+3][3*n+3]))):(e[3*t+2][3*n]=u[0].add(e[3*t+3][3*n]),e[3*t+1][3*n]=u[1].add(e[3*t+3][3*n]));break;case&quot;C&quot;:0===i?(e[3*t][3*n+1]=u[0],e[3*t][3*n+2]=u[1],e[3*t][3*n+3]=u[2]):1===i?(e[3*t+1][3*n+3]=u[0],e[3*t+2][3*n+3]=u[1],e[3*t+3][3*n+3]=u[2]):2===i?(e[3*t+3][3*n+2]=u[0],e[3*t+3][3*n+1]=u[1],0===n&amp;&amp;(e[3*t+3][3*n+0]=u[2])):(e[3*t+2][3*n]=u[0],e[3*t+1][3*n]=u[1]);break;default:console.error(&quot;mesh.js: &quot;+c+&quot; invalid path type.&quot;)}if(0===t&amp;&amp;0===n||r&gt;0){let e=window.getComputedStyle(o[r]).stopColor.match(/^rgb\s*\(\s*(\d+)\s*,\s*(\d+)\s*,\s*(\d+)\s*\)$/i),a=window.getComputedStyle(o[r]).stopOpacity,h=255;a&amp;&amp;(h=Math.floor(255*a)),e&amp;&amp;(0===i?(s[t][n]=[],s[t][n][0]=Math.floor(e[1]),s[t][n][1]=Math.floor(e[2]),s[t][n][2]=Math.floor(e[3]),s[t][n][3]=h):1===i?(s[t][n+1]=[],s[t][n+1][0]=Math.floor(e[1]),s[t][n+1][1]=Math.floor(e[2]),s[t][n+1][2]=Math.floor(e[3]),s[t][n+1][3]=h):2===i?(s[t+1][n+1]=[],s[t+1][n+1][0]=Math.floor(e[1]),s[t+1][n+1][1]=Math.floor(e[2]),s[t+1][n+1][2]=Math.floor(e[3]),s[t+1][n+1][3]=h):3===i&amp;&amp;(s[t+1][n]=[],s[t+1][n][0]=Math.floor(e[1]),s[t+1][n][1]=Math.floor(e[2]),s[t+1][n][2]=Math.floor(e[3]),s[t+1][n][3]=h))}}e[3*t+1][3*n+1]=new x,e[3*t+1][3*n+2]=new x,e[3*t+2][3*n+1]=new x,e[3*t+2][3*n+2]=new x,e[3*t+1][3*n+1].x=(-4*e[3*t][3*n].x+6*(e[3*t][3*n+1].x+e[3*t+1][3*n].x)+-2*(e[3*t][3*n+3].x+e[3*t+3][3*n].x)+3*(e[3*t+3][3*n+1].x+e[3*t+1][3*n+3].x)+-1*e[3*t+3][3*n+3].x)/9,e[3*t+1][3*n+2].x=(-4*e[3*t][3*n+3].x+6*(e[3*t][3*n+2].x+e[3*t+1][3*n+3].x)+-2*(e[3*t][3*n].x+e[3*t+3][3*n+3].x)+3*(e[3*t+3][3*n+2].x+e[3*t+1][3*n].x)+-1*e[3*t+3][3*n].x)/9,e[3*t+2][3*n+1].x=(-4*e[3*t+3][3*n].x+6*(e[3*t+3][3*n+1].x+e[3*t+2][3*n].x)+-2*(e[3*t+3][3*n+3].x+e[3*t][3*n].x)+3*(e[3*t][3*n+1].x+e[3*t+2][3*n+3].x)+-1*e[3*t][3*n+3].x)/9,e[3*t+2][3*n+2].x=(-4*e[3*t+3][3*n+3].x+6*(e[3*t+3][3*n+2].x+e[3*t+2][3*n+3].x)+-2*(e[3*t+3][3*n].x+e[3*t][3*n+3].x)+3*(e[3*t][3*n+2].x+e[3*t+2][3*n].x)+-1*e[3*t][3*n].x)/9,e[3*t+1][3*n+1].y=(-4*e[3*t][3*n].y+6*(e[3*t][3*n+1].y+e[3*t+1][3*n].y)+-2*(e[3*t][3*n+3].y+e[3*t+3][3*n].y)+3*(e[3*t+3][3*n+1].y+e[3*t+1][3*n+3].y)+-1*e[3*t+3][3*n+3].y)/9,e[3*t+1][3*n+2].y=(-4*e[3*t][3*n+3].y+6*(e[3*t][3*n+2].y+e[3*t+1][3*n+3].y)+-2*(e[3*t][3*n].y+e[3*t+3][3*n+3].y)+3*(e[3*t+3][3*n+2].y+e[3*t+1][3*n].y)+-1*e[3*t+3][3*n].y)/9,e[3*t+2][3*n+1].y=(-4*e[3*t+3][3*n].y+6*(e[3*t+3][3*n+1].y+e[3*t+2][3*n].y)+-2*(e[3*t+3][3*n+3].y+e[3*t][3*n].y)+3*(e[3*t][3*n+1].y+e[3*t+2][3*n+3].y)+-1*e[3*t][3*n+3].y)/9,e[3*t+2][3*n+2].y=(-4*e[3*t+3][3*n+3].y+6*(e[3*t+3][3*n+2].y+e[3*t+2][3*n+3].y)+-2*(e[3*t+3][3*n].y+e[3*t][3*n+3].y)+3*(e[3*t][3*n+2].y+e[3*t+2][3*n].y)+-1*e[3*t][3*n].y)/9}}this.nodes=e,this.colors=s}paintMesh(t,e){let s=(this.nodes.length-1)/3,r=(this.nodes[0].length-1)/3;if(&quot;bilinear&quot;===this.type||s&lt;2||r&lt;2){let n;for(let o=0;o&lt;s;++o)for(let s=0;s&lt;r;++s){let r=[];for(let t=3*o,e=3*o+4;t&lt;e;++t)r.push(this.nodes[t].slice(3*s,3*s+4));let i=[];i.push(this.colors[o].slice(s,s+2)),i.push(this.colors[o+1].slice(s,s+2)),(n=new m(r,i)).paint(t,e)}}else{let n,o,a,h,l,d,u;const x=s,g=r;s++,r++;let w=new Array(s);for(let t=0;t&lt;s;++t){w[t]=new Array(r);for(let e=0;e&lt;r;++e)w[t][e]=[],w[t][e][0]=this.nodes[3*t][3*e],w[t][e][1]=this.colors[t][e]}for(let t=0;t&lt;s;++t)for(let e=0;e&lt;r;++e)0!==t&amp;&amp;t!==x&amp;&amp;(n=i(w[t-1][e][0],w[t][e][0]),o=i(w[t+1][e][0],w[t][e][0]),w[t][e][2]=c(w[t-1][e][1],w[t][e][1],w[t+1][e][1],n,o)),0!==e&amp;&amp;e!==g&amp;&amp;(n=i(w[t][e-1][0],w[t][e][0]),o=i(w[t][e+1][0],w[t][e][0]),w[t][e][3]=c(w[t][e-1][1],w[t][e][1],w[t][e+1][1],n,o));for(let t=0;t&lt;r;++t){w[0][t][2]=[],w[x][t][2]=[];for(let e=0;e&lt;4;++e)n=i(w[1][t][0],w[0][t][0]),o=i(w[x][t][0],w[x-1][t][0]),w[0][t][2][e]=n&gt;0?2*(w[1][t][1][e]-w[0][t][1][e])/n-w[1][t][2][e]:0,w[x][t][2][e]=o&gt;0?2*(w[x][t][1][e]-w[x-1][t][1][e])/o-w[x-1][t][2][e]:0}for(let t=0;t&lt;s;++t){w[t][0][3]=[],w[t][g][3]=[];for(let e=0;e&lt;4;++e)n=i(w[t][1][0],w[t][0][0]),o=i(w[t][g][0],w[t][g-1][0]),w[t][0][3][e]=n&gt;0?2*(w[t][1][1][e]-w[t][0][1][e])/n-w[t][1][3][e]:0,w[t][g][3][e]=o&gt;0?2*(w[t][g][1][e]-w[t][g-1][1][e])/o-w[t][g-1][3][e]:0}for(let s=0;s&lt;x;++s)for(let r=0;r&lt;g;++r){let n=i(w[s][r][0],w[s+1][r][0]),o=i(w[s][r+1][0],w[s+1][r+1][0]),c=i(w[s][r][0],w[s][r+1][0]),x=i(w[s+1][r][0],w[s+1][r+1][0]),g=[[],[],[],[]];for(let t=0;t&lt;4;++t){(d=[])[0]=w[s][r][1][t],d[1]=w[s+1][r][1][t],d[2]=w[s][r+1][1][t],d[3]=w[s+1][r+1][1][t],d[4]=w[s][r][2][t]*n,d[5]=w[s+1][r][2][t]*n,d[6]=w[s][r+1][2][t]*o,d[7]=w[s+1][r+1][2][t]*o,d[8]=w[s][r][3][t]*c,d[9]=w[s+1][r][3][t]*x,d[10]=w[s][r+1][3][t]*c,d[11]=w[s+1][r+1][3][t]*x,d[12]=0,d[13]=0,d[14]=0,d[15]=0,u=f(d);for(let e=0;e&lt;9;++e){g[t][e]=[];for(let s=0;s&lt;9;++s)g[t][e][s]=p(u,e/8,s/8),g[t][e][s]&gt;255?g[t][e][s]=255:g[t][e][s]&lt;0&amp;&amp;(g[t][e][s]=0)}}h=[];for(let t=3*s,e=3*s+4;t&lt;e;++t)h.push(this.nodes[t].slice(3*r,3*r+4));l=y(h);for(let s=0;s&lt;8;++s)for(let r=0;r&lt;8;++r)(a=new m(l[s][r],[[[g[0][s][r],g[1][s][r],g[2][s][r],g[3][s][r]],[g[0][s][r+1],g[1][s][r+1],g[2][s][r+1],g[3][s][r+1]]],[[g[0][s+1][r],g[1][s+1][r],g[2][s+1][r],g[3][s+1][r]],[g[0][s+1][r+1],g[1][s+1][r+1],g[2][s+1][r+1],g[3][s+1][r+1]]]])).paint(t,e)}}}transform(t){if(t instanceof x)for(let e=0,s=this.nodes.length;e&lt;s;++e)for(let s=0,r=this.nodes[0].length;s&lt;r;++s)this.nodes[e][s]=this.nodes[e][s].add(t);else if(t instanceof g)for(let e=0,s=this.nodes.length;e&lt;s;++e)for(let s=0,r=this.nodes[0].length;s&lt;r;++s)this.nodes[e][s]=this.nodes[e][s].transform(t)}scale(t){for(let e=0,s=this.nodes.length;e&lt;s;++e)for(let s=0,r=this.nodes[0].length;s&lt;r;++s)this.nodes[e][s]=this.nodes[e][s].scale(t)}}document.querySelectorAll(&quot;rect,circle,ellipse,path,text&quot;).forEach((r,n)=&gt;{let o=r.getAttribute(&quot;id&quot;);o||(o=&quot;patchjs_shape&quot;+n,r.setAttribute(&quot;id&quot;,o));const i=r.style.fill.match(/^url\(\s*&quot;?\s*#([^\s&quot;]+)&quot;?\s*\)/),a=r.style.stroke.match(/^url\(\s*&quot;?\s*#([^\s&quot;]+)&quot;?\s*\)/);if(i&amp;&amp;i[1]){const a=document.getElementById(i[1]);if(a&amp;&amp;&quot;meshgradient&quot;===a.nodeName){const i=r.getBBox();let l=document.createElementNS(s,&quot;canvas&quot;);d(l,{width:i.width,height:i.height});const c=l.getContext(&quot;2d&quot;);let u=c.createImageData(i.width,i.height);const f=new b(a);&quot;objectBoundingBox&quot;===a.getAttribute(&quot;gradientUnits&quot;)&amp;&amp;f.scale(new x(i.width,i.height));const p=a.getAttribute(&quot;gradientTransform&quot;);null!=p&amp;&amp;f.transform(h(p)),&quot;userSpaceOnUse&quot;===a.getAttribute(&quot;gradientUnits&quot;)&amp;&amp;f.transform(new x(-i.x,-i.y)),f.paintMesh(u.data,l.width),c.putImageData(u,0,0);const y=document.createElementNS(t,&quot;image&quot;);d(y,{width:i.width,height:i.height,x:i.x,y:i.y});let g=l.toDataURL();y.setAttributeNS(e,&quot;xlink:href&quot;,g),r.parentNode.insertBefore(y,r),r.style.fill=&quot;none&quot;;const w=document.createElementNS(t,&quot;use&quot;);w.setAttributeNS(e,&quot;xlink:href&quot;,&quot;#&quot;+o);const m=&quot;patchjs_clip&quot;+n,M=document.createElementNS(t,&quot;clipPath&quot;);M.setAttribute(&quot;id&quot;,m),M.appendChild(w),r.parentElement.insertBefore(M,r),y.setAttribute(&quot;clip-path&quot;,&quot;url(#&quot;+m+&quot;)&quot;),u=null,l=null,g=null}}if(a&amp;&amp;a[1]){const o=document.getElementById(a[1]);if(o&amp;&amp;&quot;meshgradient&quot;===o.nodeName){const i=parseFloat(r.style.strokeWidth.slice(0,-2))*(parseFloat(r.style.strokeMiterlimit)||parseFloat(r.getAttribute(&quot;stroke-miterlimit&quot;))||1),a=r.getBBox(),l=Math.trunc(a.width+i),c=Math.trunc(a.height+i),u=Math.trunc(a.x-i/2),f=Math.trunc(a.y-i/2);let p=document.createElementNS(s,&quot;canvas&quot;);d(p,{width:l,height:c});const y=p.getContext(&quot;2d&quot;);let g=y.createImageData(l,c);const w=new b(o);&quot;objectBoundingBox&quot;===o.getAttribute(&quot;gradientUnits&quot;)&amp;&amp;w.scale(new x(l,c));const m=o.getAttribute(&quot;gradientTransform&quot;);null!=m&amp;&amp;w.transform(h(m)),&quot;userSpaceOnUse&quot;===o.getAttribute(&quot;gradientUnits&quot;)&amp;&amp;w.transform(new x(-u,-f)),w.paintMesh(g.data,p.width),y.putImageData(g,0,0);const M=document.createElementNS(t,&quot;image&quot;);d(M,{width:l,height:c,x:0,y:0});let S=p.toDataURL();M.setAttributeNS(e,&quot;xlink:href&quot;,S);const k=&quot;pattern_clip&quot;+n,A=document.createElementNS(t,&quot;pattern&quot;);d(A,{id:k,patternUnits:&quot;userSpaceOnUse&quot;,width:l,height:c,x:u,y:f}),A.appendChild(M),o.parentNode.appendChild(A),r.style.stroke=&quot;url(#&quot;+k+&quot;)&quot;,g=null,p=null,S=null}}})}();&#10;</script>
</svg>
